<?xml version="1.0" encoding="UTF-8"?>
<!DOCTYPE svg PUBLIC "-//W3C//DTD SVG 1.1//EN"
    "http://www.w3.org/Graphics/SVG/1.1/DTD/svg11.dtd"><svg xmlns="http://www.w3.org/2000/svg" height="370.0000" stroke-opacity="1" viewBox="0 0 1000 370" font-size="1" width="1000.0000" xmlns:xlink="http://www.w3.org/1999/xlink" stroke="rgb(0,0,0)" version="1.1"><defs></defs><g stroke-linejoin="miter" stroke-opacity="1.0" fill-opacity="0.0" stroke="rgb(0,0,0)" stroke-width="1.1912643244191734" fill="rgb(0,0,0)" stroke-linecap="butt" stroke-miterlimit="10.0"><path d="M 19.7099,342.6790 h 946.0738 "/></g><g stroke-linejoin="miter" stroke-opacity="1.0" fill-opacity="1.0" font-size="18.92147587511826px" stroke="rgb(0,0,0)" stroke-width="1.1912643244191734" fill="rgb(0,0,0)" stroke-linecap="butt" font-family="monospace" stroke-miterlimit="10.0"><text dominant-baseline="middle" transform="matrix(1.0000,0.0000,0.0000,1.0000,965.7837,362.3888)" stroke="none" text-anchor="middle">12</text></g><g stroke-linejoin="miter" stroke-opacity="1.0" fill-opacity="0.0" stroke="rgb(0,0,0)" stroke-width="1.1912643244191734" fill="rgb(0,0,0)" stroke-linecap="butt" stroke-miterlimit="10.0"><path d="M 965.7837,348.5919 v -11.8259 "/></g><g stroke-linejoin="miter" stroke-opacity="1.0" fill-opacity="0.0" stroke="rgb(0,0,0)" stroke-width="1.1912643244191734" fill="rgb(0,0,0)" stroke-linecap="butt" stroke-miterlimit="10.0"><path d="M 886.9442,345.8325 v -6.3072 "/></g><g stroke-linejoin="miter" stroke-opacity="1.0" fill-opacity="0.0" stroke="rgb(0,0,0)" stroke-width="1.1912643244191734" fill="rgb(0,0,0)" stroke-linecap="butt" stroke-miterlimit="10.0"><path d="M 808.1047,345.8325 v -6.3072 "/></g><g stroke-linejoin="miter" stroke-opacity="1.0" fill-opacity="1.0" font-size="18.92147587511826px" stroke="rgb(0,0,0)" stroke-width="1.1912643244191734" fill="rgb(0,0,0)" stroke-linecap="butt" font-family="monospace" stroke-miterlimit="10.0"><text dominant-baseline="middle" transform="matrix(1.0000,0.0000,0.0000,1.0000,729.2652,362.3888)" stroke="none" text-anchor="middle">9</text></g><g stroke-linejoin="miter" stroke-opacity="1.0" fill-opacity="0.0" stroke="rgb(0,0,0)" stroke-width="1.1912643244191734" fill="rgb(0,0,0)" stroke-linecap="butt" stroke-miterlimit="10.0"><path d="M 729.2652,348.5919 v -11.8259 "/></g><g stroke-linejoin="miter" stroke-opacity="1.0" fill-opacity="0.0" stroke="rgb(0,0,0)" stroke-width="1.1912643244191734" fill="rgb(0,0,0)" stroke-linecap="butt" stroke-miterlimit="10.0"><path d="M 650.4257,345.8325 v -6.3072 "/></g><g stroke-linejoin="miter" stroke-opacity="1.0" fill-opacity="0.0" stroke="rgb(0,0,0)" stroke-width="1.1912643244191734" fill="rgb(0,0,0)" stroke-linecap="butt" stroke-miterlimit="10.0"><path d="M 571.5863,345.8325 v -6.3072 "/></g><g stroke-linejoin="miter" stroke-opacity="1.0" fill-opacity="1.0" font-size="18.92147587511826px" stroke="rgb(0,0,0)" stroke-width="1.1912643244191734" fill="rgb(0,0,0)" stroke-linecap="butt" font-family="monospace" stroke-miterlimit="10.0"><text dominant-baseline="middle" transform="matrix(1.0000,0.0000,0.0000,1.0000,492.7468,362.3888)" stroke="none" text-anchor="middle">6</text></g><g stroke-linejoin="miter" stroke-opacity="1.0" fill-opacity="0.0" stroke="rgb(0,0,0)" stroke-width="1.1912643244191734" fill="rgb(0,0,0)" stroke-linecap="butt" stroke-miterlimit="10.0"><path d="M 492.7468,348.5919 v -11.8259 "/></g><g stroke-linejoin="miter" stroke-opacity="1.0" fill-opacity="0.0" stroke="rgb(0,0,0)" stroke-width="1.1912643244191734" fill="rgb(0,0,0)" stroke-linecap="butt" stroke-miterlimit="10.0"><path d="M 413.9073,345.8325 v -6.3072 "/></g><g stroke-linejoin="miter" stroke-opacity="1.0" fill-opacity="0.0" stroke="rgb(0,0,0)" stroke-width="1.1912643244191734" fill="rgb(0,0,0)" stroke-linecap="butt" stroke-miterlimit="10.0"><path d="M 335.0678,345.8325 v -6.3072 "/></g><g stroke-linejoin="miter" stroke-opacity="1.0" fill-opacity="1.0" font-size="18.92147587511826px" stroke="rgb(0,0,0)" stroke-width="1.1912643244191734" fill="rgb(0,0,0)" stroke-linecap="butt" font-family="monospace" stroke-miterlimit="10.0"><text dominant-baseline="middle" transform="matrix(1.0000,0.0000,0.0000,1.0000,256.2283,362.3888)" stroke="none" text-anchor="middle">3</text></g><g stroke-linejoin="miter" stroke-opacity="1.0" fill-opacity="0.0" stroke="rgb(0,0,0)" stroke-width="1.1912643244191734" fill="rgb(0,0,0)" stroke-linecap="butt" stroke-miterlimit="10.0"><path d="M 256.2283,348.5919 v -11.8259 "/></g><g stroke-linejoin="miter" stroke-opacity="1.0" fill-opacity="0.0" stroke="rgb(0,0,0)" stroke-width="1.1912643244191734" fill="rgb(0,0,0)" stroke-linecap="butt" stroke-miterlimit="10.0"><path d="M 177.3888,345.8325 v -6.3072 "/></g><g stroke-linejoin="miter" stroke-opacity="1.0" fill-opacity="0.0" stroke="rgb(0,0,0)" stroke-width="1.1912643244191734" fill="rgb(0,0,0)" stroke-linecap="butt" stroke-miterlimit="10.0"><path d="M 98.5494,345.8325 v -6.3072 "/></g><g stroke-linejoin="miter" stroke-opacity="1.0" fill-opacity="1.0" font-size="18.92147587511826px" stroke="rgb(0,0,0)" stroke-width="1.1912643244191734" fill="rgb(0,0,0)" stroke-linecap="butt" font-family="monospace" stroke-miterlimit="10.0"><text dominant-baseline="middle" transform="matrix(1.0000,0.0000,0.0000,1.0000,19.7099,362.3888)" stroke="none" text-anchor="middle">0</text></g><g stroke-linejoin="miter" stroke-opacity="1.0" fill-opacity="0.0" stroke="rgb(0,0,0)" stroke-width="1.1912643244191734" fill="rgb(0,0,0)" stroke-linecap="butt" stroke-miterlimit="10.0"><path d="M 19.7099,348.5919 v -11.8259 "/></g><g stroke-linejoin="miter" stroke-opacity="1.0" fill-opacity="1.0" stroke="rgb(30,144,255)" stroke-width="1.5767896562598551" fill="rgb(30,144,255)" stroke-linecap="butt" stroke-miterlimit="10.0"><path d="M -0.0000,300.4998 c 2.6280,1.8207 5.2560,3.6414 7.8839 3.1536c 2.6280,-0.4879 5.2560,-3.2843 7.8839 -3.1536c 2.6280,0.1307 5.2560,3.1886 7.8839 3.1536c 2.6280,-0.0350 5.2560,-3.1630 7.8839 -3.1536c 2.6280,0.0094 5.2560,3.1561 7.8839 3.1536c 2.6280,-0.0025 5.2560,-3.1543 7.8839 -3.1536c 2.6280,0.0007 5.2560,3.1538 7.8839 3.1536c 2.6280,-0.0002 5.2560,-3.1536 7.8839 -3.1536c 2.6280,0.0000 5.2560,3.1536 7.8839 3.1536c 2.6280,-0.0000 5.2560,-3.1536 7.8839 -3.1536c 2.6280,0.0000 5.2560,3.1536 7.8839 3.1536c 2.6280,-0.0000 5.2560,-3.1536 7.8839 -3.1536c 2.6280,0.0000 5.2560,3.1536 7.8839 3.1536c 2.6280,-0.0000 5.2560,-3.1536 7.8839 -3.1536c 2.6280,0.0000 5.2560,3.1536 7.8839 3.1536c 2.6280,-0.0000 5.2560,-3.1536 7.8839 -3.1536c 2.6280,0.0000 5.2560,3.1536 7.8839 3.1536c 2.6280,-0.0000 5.2560,-3.1536 7.8839 -3.1536c 2.6280,0.0000 5.2560,3.1536 7.8839 3.1536c 2.6280,-0.0000 5.2560,-3.1536 7.8839 -3.1536c 2.6280,0.0000 5.2560,3.1536 7.8839 3.1536c 2.6280,-0.0000 5.2560,-3.1536 7.8839 -3.1536c 2.6280,0.0000 5.2560,3.1536 7.8839 3.1536c 2.6280,-0.0000 5.2560,-3.1536 7.8839 -3.1536c 2.6280,0.0000 5.2560,3.1536 7.8839 3.1536c 2.6280,-0.0000 5.2560,-3.1536 7.8839 -3.1536c 2.6280,0.0000 5.2560,3.1536 7.8839 3.1536c 2.6280,-0.0000 5.2560,-3.1536 7.8839 -3.1536c 2.6280,0.0000 5.2560,3.1536 7.8839 3.1536c 2.6280,0.0000 5.2560,-3.1536 7.8839 -3.1536c 2.6280,-0.0000 5.2560,3.1536 7.8839 3.1536c 2.6280,0.0000 5.2560,-3.1536 7.8839 -3.1536c 2.6280,-0.0000 5.2560,3.1536 7.8839 3.1536c 2.6280,0.0000 5.2560,-3.1536 7.8839 -3.1536c 2.6280,-0.0000 5.2560,3.1536 7.8839 3.1536c 2.6280,0.0000 5.2560,-3.1536 7.8839 -3.1536c 2.6280,-0.0000 5.2560,3.1536 7.8839 3.1536c 2.6280,0.0000 5.2560,-3.1536 7.8839 -3.1536c 2.6280,-0.0000 5.2560,3.1536 7.8839 3.1536c 2.6280,0.0000 5.2560,-3.1536 7.8839 -3.1536c 2.6280,-0.0000 5.2560,3.1536 7.8839 3.1536c 2.6280,0.0000 5.2560,-3.1536 7.8839 -3.1536c 2.6280,-0.0000 5.2560,3.1536 7.8839 3.1536c 2.6280,0.0000 5.2560,-3.1536 7.8839 -3.1536c 2.6280,-0.0000 5.2560,3.1536 7.8839 3.1536c 2.6280,0.0000 5.2560,-3.1536 7.8839 -3.1536c 2.6280,-0.0000 5.2560,3.1536 7.8839 3.1536c 2.6280,0.0000 5.2560,-3.1536 7.8839 -3.1536c 2.6280,-0.0000 5.2560,3.1536 7.8839 3.1536c 2.6280,0.0000 5.2560,-3.1536 7.8839 -3.1536c 2.6280,-0.0000 5.2560,3.1536 7.8839 3.1536c 2.6280,0.0000 5.2560,-3.1536 7.8839 -3.1536c 2.6280,-0.0000 5.2560,3.1536 7.8839 3.1536c 2.6280,0.0000 5.2560,-3.1536 7.8839 -3.1536c 2.6280,-0.0000 5.2560,3.1536 7.8839 3.1536c 2.6280,0.0000 5.2560,-3.1536 7.8839 -3.1536c 2.6280,-0.0000 5.2560,3.1536 7.8839 3.1536c 2.6280,0.0000 5.2560,-3.1536 7.8839 -3.1536c 2.6280,-0.0000 5.2560,3.1536 7.8839 3.1536c 2.6280,0.0000 5.2560,-3.1536 7.8839 -3.1536c 2.6280,-0.0000 5.2560,3.1536 7.8839 3.1536c 2.6280,0.0000 5.2560,-3.1536 7.8839 -3.1536c 2.6280,-0.0000 5.2560,3.1536 7.8839 3.1536c 2.6280,0.0000 5.2560,-3.1536 7.8839 -3.1536c 2.6280,-0.0000 5.2560,3.1536 7.8839 3.1536c 2.6280,0.0000 5.2560,-3.1536 7.8839 -3.1536c 2.6280,-0.0000 5.2560,3.1536 7.8839 3.1536c 2.6280,0.0000 5.2560,-3.1536 7.8839 -3.1536c 2.6280,-0.0000 5.2560,3.1536 7.8839 3.1536c 2.6280,0.0000 5.2560,-3.1536 7.8839 -3.1536c 2.6280,-0.0000 5.2560,3.1536 7.8839 3.1536c 2.6280,0.0000 5.2560,-3.1536 7.8839 -3.1536c 2.6280,-0.0000 5.2560,3.1536 7.8839 3.1536c 2.6280,0.0000 5.2560,-3.1536 7.8839 -3.1536c 2.6280,-0.0000 5.2560,3.1536 7.8839 3.1536c 2.6280,0.0000 5.2560,-3.1536 7.8839 -3.1536c 2.6280,-0.0000 5.2560,3.1536 7.8839 3.1536c 2.6280,0.0000 5.2560,-3.1536 7.8839 -3.1536c 2.6280,-0.0000 5.2560,3.1536 7.8839 3.1536c 2.6280,0.0000 5.2560,-3.1536 7.8839 -3.1536c 2.6280,-0.0000 5.2560,3.1536 7.8839 3.1536c 2.6280,0.0000 5.2560,-3.1536 7.8839 -3.1536c 2.6280,-0.0000 5.2560,3.1536 7.8839 3.1536c 2.6280,0.0000 5.2560,-3.1536 7.8839 -3.1536c 2.6280,-0.0000 5.2560,3.1536 7.8839 3.1536c 2.6280,0.0000 5.2560,-3.1536 7.8839 -3.1536c 2.6280,-0.0000 5.2560,3.1536 7.8839 3.1536c 2.6280,0.0000 5.2560,-3.1536 7.8839 -3.1536c 2.6280,-0.0000 5.2560,3.1536 7.8839 3.1536c 2.6280,0.0000 5.2560,-3.1536 7.8839 -3.1536c 2.6280,-0.0000 5.2560,3.1536 7.8839 3.1536c 2.6280,0.0000 5.2560,-3.1536 7.8839 -3.1536c 2.6280,-0.0000 5.2560,3.1536 7.8839 3.1536c 2.6280,0.0000 5.2560,-3.1536 7.8839 -3.1536c 2.6280,-0.0000 5.2560,3.1536 7.8839 3.1536c 2.6280,0.0000 5.2560,-3.1536 7.8839 -3.1536c 2.6280,-0.0000 5.2560,3.1536 7.8839 3.1536c 2.6280,0.0000 5.2560,-3.1536 7.8839 -3.1536c 2.6280,-0.0000 5.2560,3.1536 7.8839 3.1536c 2.6280,0.0000 5.2560,-3.1536 7.8839 -3.1536c 2.6280,-0.0000 5.2560,3.1536 7.8839 3.1536c 2.6280,0.0000 5.2560,-3.1536 7.8839 -3.1536c 2.6280,-0.0000 5.2560,3.1536 7.8839 3.1536c 2.6280,0.0000 5.2560,-3.1536 7.8839 -3.1536c 2.6280,-0.0000 5.2560,3.1536 7.8839 3.1536c 2.6280,0.0000 5.2560,-3.1536 7.8839 -3.1536c 2.6280,-0.0000 5.2560,3.1536 7.8839 3.1536c 2.6280,0.0000 5.2560,-3.1536 7.8839 -3.1536c 2.6280,-0.0000 5.2560,3.1536 7.8839 3.1536c 2.6280,0.0000 5.2560,-3.1536 7.8839 -3.1536c 2.6280,-0.0000 5.2560,3.1536 7.8839 3.1536c 2.6280,0.0000 5.2560,-3.1536 7.8839 -3.1536c 2.6280,-0.0000 5.2560,3.1536 7.8839 3.1536c 2.6280,0.0000 5.2560,-3.1536 7.8839 -3.1536c 2.6280,-0.0000 5.2560,3.1536 7.8839 3.1536c 2.6280,0.0000 5.2560,-3.1536 7.8839 -3.1536c 2.6280,-0.0000 5.2560,3.1535 7.8839 3.1536c 2.6280,0.0000 5.2560,-3.1534 7.8839 -3.1536c 2.6280,-0.0002 5.2560,3.1529 7.8839 3.1536c 2.6280,0.0007 5.2560,-3.1511 7.8839 -3.1536c 2.6280,-0.0025 5.2560,3.1442 7.8839 3.1536c 2.6280,0.0094 5.2560,-3.1186 7.8839 -3.1536c 2.6280,-0.0350 5.2560,3.0229 7.8839 3.1536c 2.6280,0.1307 5.2560,-2.6657 7.8839 -3.1536c 2.6280,-0.4879 5.2560,1.3329 7.8839 3.1536v 15.7679 h -985.4935 Z"/></g><g stroke-linejoin="miter" stroke-opacity="1.0" fill-opacity="1.0" stroke="rgb(0,0,0)" fill-rule="evenodd" stroke-width="0.2759381898454747" fill="rgb(0,0,0)" stroke-linecap="butt" stroke-miterlimit="10.0"><path d="M 972.4062,253.7930 l -0.0000,-5.5188 l -0.1725,-0.0241 l -0.1725,-0.0226 l -0.1725,-0.0212 l -0.1725,-0.0197 l -0.1725,-0.0182 l -0.1725,-0.0167 l -0.1725,-0.0151 l -0.1725,-0.0136 l -0.1725,-0.0120 l -0.1725,-0.0104 l -0.1725,-0.0088 l -0.1725,-0.0073 l -0.1725,-0.0056 l -0.1725,-0.0040 l -0.1725,-0.0024 l -0.1725,-0.0008 l -0.1725,0.0008 l -0.1725,0.0024 l -0.1725,0.0040 l -0.1725,0.0056 l -0.1725,0.0073 l -0.1725,0.0088 l -0.1725,0.0104 l -0.1725,0.0120 l -0.1725,0.0136 l -0.1725,0.0151 l -0.1725,0.0167 l -0.1725,0.0182 l -0.1725,0.0197 l -0.1725,0.0212 l -0.1725,0.0226 l -0.1725,0.0241 l -0.0000,5.5188 l 0.1725,-0.0241 l 0.1725,-0.0226 l 0.1725,-0.0212 l 0.1725,-0.0197 l 0.1725,-0.0182 l 0.1725,-0.0167 l 0.1725,-0.0151 l 0.1725,-0.0136 l 0.1725,-0.0120 l 0.1725,-0.0104 l 0.1725,-0.0088 l 0.1725,-0.0073 l 0.1725,-0.0056 l 0.1725,-0.0040 l 0.1725,-0.0024 l 0.1725,-0.0008 l 0.1725,0.0008 l 0.1725,0.0024 l 0.1725,0.0040 l 0.1725,0.0056 l 0.1725,0.0073 l 0.1725,0.0088 l 0.1725,0.0104 l 0.1725,0.0120 l 0.1725,0.0136 l 0.1725,0.0151 l 0.1725,0.0167 l 0.1725,0.0182 l 0.1725,0.0197 l 0.1725,0.0212 l 0.1725,0.0226 ZM 977.9249,255.1289 v -5.5188 l -0.6898,-0.2050 l -0.3449,-0.1008 l -0.3449,-0.0992 l -0.3449,-0.0971 l -0.3449,-0.0947 l -0.3449,-0.0919 l -0.3449,-0.0888 l -0.3449,-0.0853 l -0.3449,-0.0814 l -0.3449,-0.0773 l -0.1725,-0.0370 l -0.1725,-0.0359 l -0.1725,-0.0347 l -0.1725,-0.0335 l -0.1725,-0.0322 l -0.1725,-0.0309 l -0.1725,-0.0296 l -0.1725,-0.0283 l -0.1725,-0.0269 l -0.1725,-0.0255 l -0.0000,5.5188 l 0.1725,0.0255 l 0.1725,0.0269 l 0.1725,0.0283 l 0.1725,0.0296 l 0.1725,0.0309 l 0.1725,0.0322 l 0.1725,0.0335 l 0.1725,0.0347 l 0.1725,0.0359 l 0.1725,0.0370 l 0.3449,0.0773 l 0.3449,0.0814 l 0.3449,0.0853 l 0.3449,0.0888 l 0.3449,0.0919 l 0.3449,0.0947 l 0.3449,0.0971 l 0.3449,0.0992 l 0.3449,0.1008 ZM 977.9249,255.1289 v -5.5188 l -0.6898,-0.2050 l -0.3449,-0.1008 l -0.3449,-0.0992 l -0.3449,-0.0971 l -0.3449,-0.0947 l -0.3449,-0.0919 l -0.3449,-0.0888 l -0.3449,-0.0853 l -0.3449,-0.0814 l -0.3449,-0.0773 l -0.1725,-0.0370 l -0.1725,-0.0359 l -0.1725,-0.0347 l -0.1725,-0.0335 l -0.1725,-0.0322 l -0.1725,-0.0309 l -0.1725,-0.0296 l -0.1725,-0.0283 l -0.1725,-0.0269 l -0.1725,-0.0255 l -0.0000,5.5188 l 0.1725,0.0255 l 0.1725,0.0269 l 0.1725,0.0283 l 0.1725,0.0296 l 0.1725,0.0309 l 0.1725,0.0322 l 0.1725,0.0335 l 0.1725,0.0347 l 0.1725,0.0359 l 0.1725,0.0370 l 0.3449,0.0773 l 0.3449,0.0814 l 0.3449,0.0853 l 0.3449,0.0888 l 0.3449,0.0919 l 0.3449,0.0947 l 0.3449,0.0971 l 0.3449,0.0992 l 0.3449,0.1008 ZM 983.4437,256.5724 v -5.5188 l -0.1725,-0.0316 l -0.1725,-0.0329 l -0.1725,-0.0341 l -0.1725,-0.0353 l -0.1725,-0.0365 l -0.1725,-0.0376 l -0.3449,-0.0784 l -0.3449,-0.0825 l -0.3449,-0.0862 l -0.3449,-0.0896 l -0.3449,-0.0927 l -0.3449,-0.0954 l -0.3449,-0.0977 l -0.3449,-0.0996 l -0.3449,-0.1012 l -0.6898,-0.2054 l -0.6898,-0.2068 v 5.5188 l 0.6898,0.2068 l 0.6898,0.2054 l 0.3449,0.1012 l 0.3449,0.0996 l 0.3449,0.0977 l 0.3449,0.0954 l 0.3449,0.0927 l 0.3449,0.0896 l 0.3449,0.0862 l 0.3449,0.0825 l 0.3449,0.0784 l 0.1725,0.0376 l 0.1725,0.0365 l 0.1725,0.0353 l 0.1725,0.0341 l 0.1725,0.0329 ZM 988.9625,256.7964 v -5.5188 l -0.1725,0.0174 l -0.1725,0.0159 l -0.1725,0.0143 l -0.1725,0.0128 l -0.1725,0.0112 l -0.1725,0.0096 l -0.1725,0.0080 l -0.1725,0.0064 l -0.1725,0.0048 l -0.1725,0.0032 l -0.1725,0.0016 l -0.1725,-0.0001 l -0.1725,-0.0017 l -0.1725,-0.0033 l -0.1725,-0.0049 l -0.1725,-0.0065 l -0.1725,-0.0081 l -0.1725,-0.0097 l -0.1725,-0.0113 l -0.1725,-0.0128 l -0.1725,-0.0144 l -0.1725,-0.0160 l -0.1725,-0.0175 l -0.1725,-0.0190 l -0.1725,-0.0205 l -0.1725,-0.0220 l -0.1725,-0.0234 l -0.1725,-0.0248 l -0.1725,-0.0263 l -0.1725,-0.0276 l -0.1725,-0.0290 l -0.1725,-0.0303 v 5.5188 l 0.1725,0.0303 l 0.1725,0.0290 l 0.1725,0.0276 l 0.1725,0.0263 l 0.1725,0.0248 l 0.1725,0.0234 l 0.1725,0.0220 l 0.1725,0.0205 l 0.1725,0.0190 l 0.1725,0.0175 l 0.1725,0.0160 l 0.1725,0.0144 l 0.1725,0.0128 l 0.1725,0.0113 l 0.1725,0.0097 l 0.1725,0.0081 l 0.1725,0.0065 l 0.1725,0.0049 l 0.1725,0.0033 l 0.1725,0.0017 l 0.1725,0.0001 l 0.1725,-0.0016 l 0.1725,-0.0032 l 0.1725,-0.0048 l 0.1725,-0.0064 l 0.1725,-0.0080 l 0.1725,-0.0096 l 0.1725,-0.0112 l 0.1725,-0.0128 l 0.1725,-0.0143 l 0.1725,-0.0159 ZM 988.9625,256.7964 v -5.5188 l -0.1725,0.0174 l -0.1725,0.0159 l -0.1725,0.0143 l -0.1725,0.0128 l -0.1725,0.0112 l -0.1725,0.0096 l -0.1725,0.0080 l -0.1725,0.0064 l -0.1725,0.0048 l -0.1725,0.0032 l -0.1725,0.0016 l -0.1725,-0.0001 l -0.1725,-0.0017 l -0.1725,-0.0033 l -0.1725,-0.0049 l -0.1725,-0.0065 l -0.1725,-0.0081 l -0.1725,-0.0097 l -0.1725,-0.0113 l -0.1725,-0.0128 l -0.1725,-0.0144 l -0.1725,-0.0160 l -0.1725,-0.0175 l -0.1725,-0.0190 l -0.1725,-0.0205 l -0.1725,-0.0220 l -0.1725,-0.0234 l -0.1725,-0.0248 l -0.1725,-0.0263 l -0.1725,-0.0276 l -0.1725,-0.0290 l -0.1725,-0.0303 v 5.5188 l 0.1725,0.0303 l 0.1725,0.0290 l 0.1725,0.0276 l 0.1725,0.0263 l 0.1725,0.0248 l 0.1725,0.0234 l 0.1725,0.0220 l 0.1725,0.0205 l 0.1725,0.0190 l 0.1725,0.0175 l 0.1725,0.0160 l 0.1725,0.0144 l 0.1725,0.0128 l 0.1725,0.0113 l 0.1725,0.0097 l 0.1725,0.0081 l 0.1725,0.0065 l 0.1725,0.0049 l 0.1725,0.0033 l 0.1725,0.0017 l 0.1725,0.0001 l 0.1725,-0.0016 l 0.1725,-0.0032 l 0.1725,-0.0048 l 0.1725,-0.0064 l 0.1725,-0.0080 l 0.1725,-0.0096 l 0.1725,-0.0112 l 0.1725,-0.0128 l 0.1725,-0.0143 l 0.1725,-0.0159 ZM 994.4812,255.5950 v -5.5188 l -0.3449,0.1004 l -0.3449,0.0986 l -0.3449,0.0965 l -0.3449,0.0940 l -0.3449,0.0911 l -0.3449,0.0879 l -0.3449,0.0843 l -0.3449,0.0804 l -0.3449,0.0761 l -0.1725,0.0364 l -0.1725,0.0352 l -0.1725,0.0340 l -0.1725,0.0328 l -0.1725,0.0315 l -0.1725,0.0302 l -0.1725,0.0289 l -0.1725,0.0275 l -0.1725,0.0262 l -0.1725,0.0248 l -0.1725,0.0233 l -0.1725,0.0219 l -0.1725,0.0204 l -0.1725,0.0189 v 5.5188 l 0.1725,-0.0189 l 0.1725,-0.0204 l 0.1725,-0.0219 l 0.1725,-0.0233 l 0.1725,-0.0248 l 0.1725,-0.0262 l 0.1725,-0.0275 l 0.1725,-0.0289 l 0.1725,-0.0302 l 0.1725,-0.0315 l 0.1725,-0.0328 l 0.1725,-0.0340 l 0.1725,-0.0352 l 0.1725,-0.0364 l 0.3449,-0.0761 l 0.3449,-0.0804 l 0.3449,-0.0843 l 0.3449,-0.0879 l 0.3449,-0.0911 l 0.3449,-0.0940 l 0.3449,-0.0965 l 0.3449,-0.0986 ZM 1000.0000,254.0727 v -5.5188 l -0.1725,0.0371 l -0.1725,0.0382 l -0.3449,0.0795 l -0.3449,0.0835 l -0.3449,0.0872 l -0.3449,0.0905 l -0.3449,0.0934 l -0.3449,0.0960 l -0.3449,0.0982 l -0.3449,0.1001 l -0.3449,0.1015 l -0.6898,0.2058 l -0.6898,0.2068 l -0.6898,0.2045 v 5.5188 l 0.6898,-0.2045 l 0.6898,-0.2068 l 0.6898,-0.2058 l 0.3449,-0.1015 l 0.3449,-0.1001 l 0.3449,-0.0982 l 0.3449,-0.0960 l 0.3449,-0.0934 l 0.3449,-0.0905 l 0.3449,-0.0872 l 0.3449,-0.0835 l 0.3449,-0.0795 l 0.1725,-0.0382 ZM 1000.0000,254.0727 v -5.5188 l -0.1725,0.0371 l -0.1725,0.0382 l -0.3449,0.0795 l -0.3449,0.0835 l -0.3449,0.0872 l -0.3449,0.0905 l -0.3449,0.0934 l -0.3449,0.0960 l -0.3449,0.0982 l -0.3449,0.1001 l -0.3449,0.1015 l -0.6898,0.2058 l -0.6898,0.2068 l -0.6898,0.2045 v 5.5188 l 0.6898,-0.2045 l 0.6898,-0.2068 l 0.6898,-0.2058 l 0.3449,-0.1015 l 0.3449,-0.1001 l 0.3449,-0.0982 l 0.3449,-0.0960 l 0.3449,-0.0934 l 0.3449,-0.0905 l 0.3449,-0.0872 l 0.3449,-0.0835 l 0.3449,-0.0795 l 0.1725,-0.0382 ZM 972.4062,259.3118 l -0.0000,-5.5188 l -0.1725,-0.0241 l -0.1725,-0.0226 l -0.1725,-0.0212 l -0.1725,-0.0197 l -0.1725,-0.0182 l -0.1725,-0.0167 l -0.1725,-0.0151 l -0.1725,-0.0136 l -0.1725,-0.0120 l -0.1725,-0.0104 l -0.1725,-0.0088 l -0.1725,-0.0073 l -0.1725,-0.0056 l -0.1725,-0.0040 l -0.1725,-0.0024 l -0.1725,-0.0008 l -0.1725,0.0008 l -0.1725,0.0024 l -0.1725,0.0040 l -0.1725,0.0056 l -0.1725,0.0073 l -0.1725,0.0088 l -0.1725,0.0104 l -0.1725,0.0120 l -0.1725,0.0136 l -0.1725,0.0151 l -0.1725,0.0167 l -0.1725,0.0182 l -0.1725,0.0197 l -0.1725,0.0212 l -0.1725,0.0226 l -0.1725,0.0241 l -0.0000,5.5188 l 0.1725,-0.0241 l 0.1725,-0.0226 l 0.1725,-0.0212 l 0.1725,-0.0197 l 0.1725,-0.0182 l 0.1725,-0.0167 l 0.1725,-0.0151 l 0.1725,-0.0136 l 0.1725,-0.0120 l 0.1725,-0.0104 l 0.1725,-0.0088 l 0.1725,-0.0073 l 0.1725,-0.0056 l 0.1725,-0.0040 l 0.1725,-0.0024 l 0.1725,-0.0008 l 0.1725,0.0008 l 0.1725,0.0024 l 0.1725,0.0040 l 0.1725,0.0056 l 0.1725,0.0073 l 0.1725,0.0088 l 0.1725,0.0104 l 0.1725,0.0120 l 0.1725,0.0136 l 0.1725,0.0151 l 0.1725,0.0167 l 0.1725,0.0182 l 0.1725,0.0197 l 0.1725,0.0212 l 0.1725,0.0226 ZM 972.4062,259.3118 l -0.0000,-5.5188 l -0.1725,-0.0241 l -0.1725,-0.0226 l -0.1725,-0.0212 l -0.1725,-0.0197 l -0.1725,-0.0182 l -0.1725,-0.0167 l -0.1725,-0.0151 l -0.1725,-0.0136 l -0.1725,-0.0120 l -0.1725,-0.0104 l -0.1725,-0.0088 l -0.1725,-0.0073 l -0.1725,-0.0056 l -0.1725,-0.0040 l -0.1725,-0.0024 l -0.1725,-0.0008 l -0.1725,0.0008 l -0.1725,0.0024 l -0.1725,0.0040 l -0.1725,0.0056 l -0.1725,0.0073 l -0.1725,0.0088 l -0.1725,0.0104 l -0.1725,0.0120 l -0.1725,0.0136 l -0.1725,0.0151 l -0.1725,0.0167 l -0.1725,0.0182 l -0.1725,0.0197 l -0.1725,0.0212 l -0.1725,0.0226 l -0.1725,0.0241 l -0.0000,5.5188 l 0.1725,-0.0241 l 0.1725,-0.0226 l 0.1725,-0.0212 l 0.1725,-0.0197 l 0.1725,-0.0182 l 0.1725,-0.0167 l 0.1725,-0.0151 l 0.1725,-0.0136 l 0.1725,-0.0120 l 0.1725,-0.0104 l 0.1725,-0.0088 l 0.1725,-0.0073 l 0.1725,-0.0056 l 0.1725,-0.0040 l 0.1725,-0.0024 l 0.1725,-0.0008 l 0.1725,0.0008 l 0.1725,0.0024 l 0.1725,0.0040 l 0.1725,0.0056 l 0.1725,0.0073 l 0.1725,0.0088 l 0.1725,0.0104 l 0.1725,0.0120 l 0.1725,0.0136 l 0.1725,0.0151 l 0.1725,0.0167 l 0.1725,0.0182 l 0.1725,0.0197 l 0.1725,0.0212 l 0.1725,0.0226 ZM 977.9249,260.6476 v -5.5188 l -0.6898,-0.2050 l -0.3449,-0.1008 l -0.3449,-0.0992 l -0.3449,-0.0971 l -0.3449,-0.0947 l -0.3449,-0.0919 l -0.3449,-0.0888 l -0.3449,-0.0853 l -0.3449,-0.0814 l -0.3449,-0.0773 l -0.1725,-0.0370 l -0.1725,-0.0359 l -0.1725,-0.0347 l -0.1725,-0.0335 l -0.1725,-0.0322 l -0.1725,-0.0309 l -0.1725,-0.0296 l -0.1725,-0.0283 l -0.1725,-0.0269 l -0.1725,-0.0255 l -0.0000,5.5188 l 0.1725,0.0255 l 0.1725,0.0269 l 0.1725,0.0283 l 0.1725,0.0296 l 0.1725,0.0309 l 0.1725,0.0322 l 0.1725,0.0335 l 0.1725,0.0347 l 0.1725,0.0359 l 0.1725,0.0370 l 0.3449,0.0773 l 0.3449,0.0814 l 0.3449,0.0853 l 0.3449,0.0888 l 0.3449,0.0919 l 0.3449,0.0947 l 0.3449,0.0971 l 0.3449,0.0992 l 0.3449,0.1008 ZM 983.4437,262.0911 v -5.5188 l -0.1725,-0.0316 l -0.1725,-0.0329 l -0.1725,-0.0341 l -0.1725,-0.0353 l -0.1725,-0.0365 l -0.1725,-0.0376 l -0.3449,-0.0784 l -0.3449,-0.0825 l -0.3449,-0.0862 l -0.3449,-0.0896 l -0.3449,-0.0927 l -0.3449,-0.0954 l -0.3449,-0.0977 l -0.3449,-0.0996 l -0.3449,-0.1012 l -0.6898,-0.2054 l -0.6898,-0.2068 v 5.5188 l 0.6898,0.2068 l 0.6898,0.2054 l 0.3449,0.1012 l 0.3449,0.0996 l 0.3449,0.0977 l 0.3449,0.0954 l 0.3449,0.0927 l 0.3449,0.0896 l 0.3449,0.0862 l 0.3449,0.0825 l 0.3449,0.0784 l 0.1725,0.0376 l 0.1725,0.0365 l 0.1725,0.0353 l 0.1725,0.0341 l 0.1725,0.0329 ZM 983.4437,262.0911 v -5.5188 l -0.1725,-0.0316 l -0.1725,-0.0329 l -0.1725,-0.0341 l -0.1725,-0.0353 l -0.1725,-0.0365 l -0.1725,-0.0376 l -0.3449,-0.0784 l -0.3449,-0.0825 l -0.3449,-0.0862 l -0.3449,-0.0896 l -0.3449,-0.0927 l -0.3449,-0.0954 l -0.3449,-0.0977 l -0.3449,-0.0996 l -0.3449,-0.1012 l -0.6898,-0.2054 l -0.6898,-0.2068 v 5.5188 l 0.6898,0.2068 l 0.6898,0.2054 l 0.3449,0.1012 l 0.3449,0.0996 l 0.3449,0.0977 l 0.3449,0.0954 l 0.3449,0.0927 l 0.3449,0.0896 l 0.3449,0.0862 l 0.3449,0.0825 l 0.3449,0.0784 l 0.1725,0.0376 l 0.1725,0.0365 l 0.1725,0.0353 l 0.1725,0.0341 l 0.1725,0.0329 ZM 988.9625,262.3152 v -5.5188 l -0.1725,0.0174 l -0.1725,0.0159 l -0.1725,0.0143 l -0.1725,0.0128 l -0.1725,0.0112 l -0.1725,0.0096 l -0.1725,0.0080 l -0.1725,0.0064 l -0.1725,0.0048 l -0.1725,0.0032 l -0.1725,0.0016 l -0.1725,-0.0001 l -0.1725,-0.0017 l -0.1725,-0.0033 l -0.1725,-0.0049 l -0.1725,-0.0065 l -0.1725,-0.0081 l -0.1725,-0.0097 l -0.1725,-0.0113 l -0.1725,-0.0128 l -0.1725,-0.0144 l -0.1725,-0.0160 l -0.1725,-0.0175 l -0.1725,-0.0190 l -0.1725,-0.0205 l -0.1725,-0.0220 l -0.1725,-0.0234 l -0.1725,-0.0248 l -0.1725,-0.0263 l -0.1725,-0.0276 l -0.1725,-0.0290 l -0.1725,-0.0303 v 5.5188 l 0.1725,0.0303 l 0.1725,0.0290 l 0.1725,0.0276 l 0.1725,0.0263 l 0.1725,0.0248 l 0.1725,0.0234 l 0.1725,0.0220 l 0.1725,0.0205 l 0.1725,0.0190 l 0.1725,0.0175 l 0.1725,0.0160 l 0.1725,0.0144 l 0.1725,0.0128 l 0.1725,0.0113 l 0.1725,0.0097 l 0.1725,0.0081 l 0.1725,0.0065 l 0.1725,0.0049 l 0.1725,0.0033 l 0.1725,0.0017 l 0.1725,0.0001 l 0.1725,-0.0016 l 0.1725,-0.0032 l 0.1725,-0.0048 l 0.1725,-0.0064 l 0.1725,-0.0080 l 0.1725,-0.0096 l 0.1725,-0.0112 l 0.1725,-0.0128 l 0.1725,-0.0143 l 0.1725,-0.0159 ZM 994.4812,261.1137 v -5.5188 l -0.3449,0.1004 l -0.3449,0.0986 l -0.3449,0.0965 l -0.3449,0.0940 l -0.3449,0.0911 l -0.3449,0.0879 l -0.3449,0.0843 l -0.3449,0.0804 l -0.3449,0.0761 l -0.1725,0.0364 l -0.1725,0.0352 l -0.1725,0.0340 l -0.1725,0.0328 l -0.1725,0.0315 l -0.1725,0.0302 l -0.1725,0.0289 l -0.1725,0.0275 l -0.1725,0.0262 l -0.1725,0.0248 l -0.1725,0.0233 l -0.1725,0.0219 l -0.1725,0.0204 l -0.1725,0.0189 v 5.5188 l 0.1725,-0.0189 l 0.1725,-0.0204 l 0.1725,-0.0219 l 0.1725,-0.0233 l 0.1725,-0.0248 l 0.1725,-0.0262 l 0.1725,-0.0275 l 0.1725,-0.0289 l 0.1725,-0.0302 l 0.1725,-0.0315 l 0.1725,-0.0328 l 0.1725,-0.0340 l 0.1725,-0.0352 l 0.1725,-0.0364 l 0.3449,-0.0761 l 0.3449,-0.0804 l 0.3449,-0.0843 l 0.3449,-0.0879 l 0.3449,-0.0911 l 0.3449,-0.0940 l 0.3449,-0.0965 l 0.3449,-0.0986 ZM 994.4812,261.1137 v -5.5188 l -0.3449,0.1004 l -0.3449,0.0986 l -0.3449,0.0965 l -0.3449,0.0940 l -0.3449,0.0911 l -0.3449,0.0879 l -0.3449,0.0843 l -0.3449,0.0804 l -0.3449,0.0761 l -0.1725,0.0364 l -0.1725,0.0352 l -0.1725,0.0340 l -0.1725,0.0328 l -0.1725,0.0315 l -0.1725,0.0302 l -0.1725,0.0289 l -0.1725,0.0275 l -0.1725,0.0262 l -0.1725,0.0248 l -0.1725,0.0233 l -0.1725,0.0219 l -0.1725,0.0204 l -0.1725,0.0189 v 5.5188 l 0.1725,-0.0189 l 0.1725,-0.0204 l 0.1725,-0.0219 l 0.1725,-0.0233 l 0.1725,-0.0248 l 0.1725,-0.0262 l 0.1725,-0.0275 l 0.1725,-0.0289 l 0.1725,-0.0302 l 0.1725,-0.0315 l 0.1725,-0.0328 l 0.1725,-0.0340 l 0.1725,-0.0352 l 0.1725,-0.0364 l 0.3449,-0.0761 l 0.3449,-0.0804 l 0.3449,-0.0843 l 0.3449,-0.0879 l 0.3449,-0.0911 l 0.3449,-0.0940 l 0.3449,-0.0965 l 0.3449,-0.0986 ZM 1000.0000,259.5914 v -5.5188 l -0.1725,0.0371 l -0.1725,0.0382 l -0.3449,0.0795 l -0.3449,0.0835 l -0.3449,0.0872 l -0.3449,0.0905 l -0.3449,0.0934 l -0.3449,0.0960 l -0.3449,0.0982 l -0.3449,0.1001 l -0.3449,0.1015 l -0.6898,0.2058 l -0.6898,0.2068 l -0.6898,0.2045 v 5.5188 l 0.6898,-0.2045 l 0.6898,-0.2068 l 0.6898,-0.2058 l 0.3449,-0.1015 l 0.3449,-0.1001 l 0.3449,-0.0982 l 0.3449,-0.0960 l 0.3449,-0.0934 l 0.3449,-0.0905 l 0.3449,-0.0872 l 0.3449,-0.0835 l 0.3449,-0.0795 l 0.1725,-0.0382 ZM 972.4062,264.8306 l -0.0000,-5.5188 l -0.1725,-0.0241 l -0.1725,-0.0226 l -0.1725,-0.0212 l -0.1725,-0.0197 l -0.1725,-0.0182 l -0.1725,-0.0167 l -0.1725,-0.0151 l -0.1725,-0.0136 l -0.1725,-0.0120 l -0.1725,-0.0104 l -0.1725,-0.0088 l -0.1725,-0.0073 l -0.1725,-0.0056 l -0.1725,-0.0040 l -0.1725,-0.0024 l -0.1725,-0.0008 l -0.1725,0.0008 l -0.1725,0.0024 l -0.1725,0.0040 l -0.1725,0.0056 l -0.1725,0.0073 l -0.1725,0.0088 l -0.1725,0.0104 l -0.1725,0.0120 l -0.1725,0.0136 l -0.1725,0.0151 l -0.1725,0.0167 l -0.1725,0.0182 l -0.1725,0.0197 l -0.1725,0.0212 l -0.1725,0.0226 l -0.1725,0.0241 l -0.0000,5.5188 l 0.1725,-0.0241 l 0.1725,-0.0226 l 0.1725,-0.0212 l 0.1725,-0.0197 l 0.1725,-0.0182 l 0.1725,-0.0167 l 0.1725,-0.0151 l 0.1725,-0.0136 l 0.1725,-0.0120 l 0.1725,-0.0104 l 0.1725,-0.0088 l 0.1725,-0.0073 l 0.1725,-0.0056 l 0.1725,-0.0040 l 0.1725,-0.0024 l 0.1725,-0.0008 l 0.1725,0.0008 l 0.1725,0.0024 l 0.1725,0.0040 l 0.1725,0.0056 l 0.1725,0.0073 l 0.1725,0.0088 l 0.1725,0.0104 l 0.1725,0.0120 l 0.1725,0.0136 l 0.1725,0.0151 l 0.1725,0.0167 l 0.1725,0.0182 l 0.1725,0.0197 l 0.1725,0.0212 l 0.1725,0.0226 ZM 977.9249,266.1664 v -5.5188 l -0.6898,-0.2050 l -0.3449,-0.1008 l -0.3449,-0.0992 l -0.3449,-0.0971 l -0.3449,-0.0947 l -0.3449,-0.0919 l -0.3449,-0.0888 l -0.3449,-0.0853 l -0.3449,-0.0814 l -0.3449,-0.0773 l -0.1725,-0.0370 l -0.1725,-0.0359 l -0.1725,-0.0347 l -0.1725,-0.0335 l -0.1725,-0.0322 l -0.1725,-0.0309 l -0.1725,-0.0296 l -0.1725,-0.0283 l -0.1725,-0.0269 l -0.1725,-0.0255 l -0.0000,5.5188 l 0.1725,0.0255 l 0.1725,0.0269 l 0.1725,0.0283 l 0.1725,0.0296 l 0.1725,0.0309 l 0.1725,0.0322 l 0.1725,0.0335 l 0.1725,0.0347 l 0.1725,0.0359 l 0.1725,0.0370 l 0.3449,0.0773 l 0.3449,0.0814 l 0.3449,0.0853 l 0.3449,0.0888 l 0.3449,0.0919 l 0.3449,0.0947 l 0.3449,0.0971 l 0.3449,0.0992 l 0.3449,0.1008 ZM 977.9249,266.1664 v -5.5188 l -0.6898,-0.2050 l -0.3449,-0.1008 l -0.3449,-0.0992 l -0.3449,-0.0971 l -0.3449,-0.0947 l -0.3449,-0.0919 l -0.3449,-0.0888 l -0.3449,-0.0853 l -0.3449,-0.0814 l -0.3449,-0.0773 l -0.1725,-0.0370 l -0.1725,-0.0359 l -0.1725,-0.0347 l -0.1725,-0.0335 l -0.1725,-0.0322 l -0.1725,-0.0309 l -0.1725,-0.0296 l -0.1725,-0.0283 l -0.1725,-0.0269 l -0.1725,-0.0255 l -0.0000,5.5188 l 0.1725,0.0255 l 0.1725,0.0269 l 0.1725,0.0283 l 0.1725,0.0296 l 0.1725,0.0309 l 0.1725,0.0322 l 0.1725,0.0335 l 0.1725,0.0347 l 0.1725,0.0359 l 0.1725,0.0370 l 0.3449,0.0773 l 0.3449,0.0814 l 0.3449,0.0853 l 0.3449,0.0888 l 0.3449,0.0919 l 0.3449,0.0947 l 0.3449,0.0971 l 0.3449,0.0992 l 0.3449,0.1008 ZM 983.4437,267.6099 v -5.5188 l -0.1725,-0.0316 l -0.1725,-0.0329 l -0.1725,-0.0341 l -0.1725,-0.0353 l -0.1725,-0.0365 l -0.1725,-0.0376 l -0.3449,-0.0784 l -0.3449,-0.0825 l -0.3449,-0.0862 l -0.3449,-0.0896 l -0.3449,-0.0927 l -0.3449,-0.0954 l -0.3449,-0.0977 l -0.3449,-0.0996 l -0.3449,-0.1012 l -0.6898,-0.2054 l -0.6898,-0.2068 v 5.5188 l 0.6898,0.2068 l 0.6898,0.2054 l 0.3449,0.1012 l 0.3449,0.0996 l 0.3449,0.0977 l 0.3449,0.0954 l 0.3449,0.0927 l 0.3449,0.0896 l 0.3449,0.0862 l 0.3449,0.0825 l 0.3449,0.0784 l 0.1725,0.0376 l 0.1725,0.0365 l 0.1725,0.0353 l 0.1725,0.0341 l 0.1725,0.0329 ZM 988.9625,267.8339 v -5.5188 l -0.1725,0.0174 l -0.1725,0.0159 l -0.1725,0.0143 l -0.1725,0.0128 l -0.1725,0.0112 l -0.1725,0.0096 l -0.1725,0.0080 l -0.1725,0.0064 l -0.1725,0.0048 l -0.1725,0.0032 l -0.1725,0.0016 l -0.1725,-0.0001 l -0.1725,-0.0017 l -0.1725,-0.0033 l -0.1725,-0.0049 l -0.1725,-0.0065 l -0.1725,-0.0081 l -0.1725,-0.0097 l -0.1725,-0.0113 l -0.1725,-0.0128 l -0.1725,-0.0144 l -0.1725,-0.0160 l -0.1725,-0.0175 l -0.1725,-0.0190 l -0.1725,-0.0205 l -0.1725,-0.0220 l -0.1725,-0.0234 l -0.1725,-0.0248 l -0.1725,-0.0263 l -0.1725,-0.0276 l -0.1725,-0.0290 l -0.1725,-0.0303 v 5.5188 l 0.1725,0.0303 l 0.1725,0.0290 l 0.1725,0.0276 l 0.1725,0.0263 l 0.1725,0.0248 l 0.1725,0.0234 l 0.1725,0.0220 l 0.1725,0.0205 l 0.1725,0.0190 l 0.1725,0.0175 l 0.1725,0.0160 l 0.1725,0.0144 l 0.1725,0.0128 l 0.1725,0.0113 l 0.1725,0.0097 l 0.1725,0.0081 l 0.1725,0.0065 l 0.1725,0.0049 l 0.1725,0.0033 l 0.1725,0.0017 l 0.1725,0.0001 l 0.1725,-0.0016 l 0.1725,-0.0032 l 0.1725,-0.0048 l 0.1725,-0.0064 l 0.1725,-0.0080 l 0.1725,-0.0096 l 0.1725,-0.0112 l 0.1725,-0.0128 l 0.1725,-0.0143 l 0.1725,-0.0159 ZM 988.9625,267.8339 v -5.5188 l -0.1725,0.0174 l -0.1725,0.0159 l -0.1725,0.0143 l -0.1725,0.0128 l -0.1725,0.0112 l -0.1725,0.0096 l -0.1725,0.0080 l -0.1725,0.0064 l -0.1725,0.0048 l -0.1725,0.0032 l -0.1725,0.0016 l -0.1725,-0.0001 l -0.1725,-0.0017 l -0.1725,-0.0033 l -0.1725,-0.0049 l -0.1725,-0.0065 l -0.1725,-0.0081 l -0.1725,-0.0097 l -0.1725,-0.0113 l -0.1725,-0.0128 l -0.1725,-0.0144 l -0.1725,-0.0160 l -0.1725,-0.0175 l -0.1725,-0.0190 l -0.1725,-0.0205 l -0.1725,-0.0220 l -0.1725,-0.0234 l -0.1725,-0.0248 l -0.1725,-0.0263 l -0.1725,-0.0276 l -0.1725,-0.0290 l -0.1725,-0.0303 v 5.5188 l 0.1725,0.0303 l 0.1725,0.0290 l 0.1725,0.0276 l 0.1725,0.0263 l 0.1725,0.0248 l 0.1725,0.0234 l 0.1725,0.0220 l 0.1725,0.0205 l 0.1725,0.0190 l 0.1725,0.0175 l 0.1725,0.0160 l 0.1725,0.0144 l 0.1725,0.0128 l 0.1725,0.0113 l 0.1725,0.0097 l 0.1725,0.0081 l 0.1725,0.0065 l 0.1725,0.0049 l 0.1725,0.0033 l 0.1725,0.0017 l 0.1725,0.0001 l 0.1725,-0.0016 l 0.1725,-0.0032 l 0.1725,-0.0048 l 0.1725,-0.0064 l 0.1725,-0.0080 l 0.1725,-0.0096 l 0.1725,-0.0112 l 0.1725,-0.0128 l 0.1725,-0.0143 l 0.1725,-0.0159 ZM 994.4812,266.6325 v -5.5188 l -0.3449,0.1004 l -0.3449,0.0986 l -0.3449,0.0965 l -0.3449,0.0940 l -0.3449,0.0911 l -0.3449,0.0879 l -0.3449,0.0843 l -0.3449,0.0804 l -0.3449,0.0761 l -0.1725,0.0364 l -0.1725,0.0352 l -0.1725,0.0340 l -0.1725,0.0328 l -0.1725,0.0315 l -0.1725,0.0302 l -0.1725,0.0289 l -0.1725,0.0275 l -0.1725,0.0262 l -0.1725,0.0248 l -0.1725,0.0233 l -0.1725,0.0219 l -0.1725,0.0204 l -0.1725,0.0189 v 5.5188 l 0.1725,-0.0189 l 0.1725,-0.0204 l 0.1725,-0.0219 l 0.1725,-0.0233 l 0.1725,-0.0248 l 0.1725,-0.0262 l 0.1725,-0.0275 l 0.1725,-0.0289 l 0.1725,-0.0302 l 0.1725,-0.0315 l 0.1725,-0.0328 l 0.1725,-0.0340 l 0.1725,-0.0352 l 0.1725,-0.0364 l 0.3449,-0.0761 l 0.3449,-0.0804 l 0.3449,-0.0843 l 0.3449,-0.0879 l 0.3449,-0.0911 l 0.3449,-0.0940 l 0.3449,-0.0965 l 0.3449,-0.0986 ZM 1000.0000,265.1102 v -5.5188 l -0.1725,0.0371 l -0.1725,0.0382 l -0.3449,0.0795 l -0.3449,0.0835 l -0.3449,0.0872 l -0.3449,0.0905 l -0.3449,0.0934 l -0.3449,0.0960 l -0.3449,0.0982 l -0.3449,0.1001 l -0.3449,0.1015 l -0.6898,0.2058 l -0.6898,0.2068 l -0.6898,0.2045 v 5.5188 l 0.6898,-0.2045 l 0.6898,-0.2068 l 0.6898,-0.2058 l 0.3449,-0.1015 l 0.3449,-0.1001 l 0.3449,-0.0982 l 0.3449,-0.0960 l 0.3449,-0.0934 l 0.3449,-0.0905 l 0.3449,-0.0872 l 0.3449,-0.0835 l 0.3449,-0.0795 l 0.1725,-0.0382 ZM 1000.0000,265.1102 v -5.5188 l -0.1725,0.0371 l -0.1725,0.0382 l -0.3449,0.0795 l -0.3449,0.0835 l -0.3449,0.0872 l -0.3449,0.0905 l -0.3449,0.0934 l -0.3449,0.0960 l -0.3449,0.0982 l -0.3449,0.1001 l -0.3449,0.1015 l -0.6898,0.2058 l -0.6898,0.2068 l -0.6898,0.2045 v 5.5188 l 0.6898,-0.2045 l 0.6898,-0.2068 l 0.6898,-0.2058 l 0.3449,-0.1015 l 0.3449,-0.1001 l 0.3449,-0.0982 l 0.3449,-0.0960 l 0.3449,-0.0934 l 0.3449,-0.0905 l 0.3449,-0.0872 l 0.3449,-0.0835 l 0.3449,-0.0795 l 0.1725,-0.0382 ZM 972.4062,270.3493 l -0.0000,-5.5188 l -0.1725,-0.0241 l -0.1725,-0.0226 l -0.1725,-0.0212 l -0.1725,-0.0197 l -0.1725,-0.0182 l -0.1725,-0.0167 l -0.1725,-0.0151 l -0.1725,-0.0136 l -0.1725,-0.0120 l -0.1725,-0.0104 l -0.1725,-0.0088 l -0.1725,-0.0073 l -0.1725,-0.0056 l -0.1725,-0.0040 l -0.1725,-0.0024 l -0.1725,-0.0008 l -0.1725,0.0008 l -0.1725,0.0024 l -0.1725,0.0040 l -0.1725,0.0056 l -0.1725,0.0073 l -0.1725,0.0088 l -0.1725,0.0104 l -0.1725,0.0120 l -0.1725,0.0136 l -0.1725,0.0151 l -0.1725,0.0167 l -0.1725,0.0182 l -0.1725,0.0197 l -0.1725,0.0212 l -0.1725,0.0226 l -0.1725,0.0241 l -0.0000,5.5188 l 0.1725,-0.0241 l 0.1725,-0.0226 l 0.1725,-0.0212 l 0.1725,-0.0197 l 0.1725,-0.0182 l 0.1725,-0.0167 l 0.1725,-0.0151 l 0.1725,-0.0136 l 0.1725,-0.0120 l 0.1725,-0.0104 l 0.1725,-0.0088 l 0.1725,-0.0073 l 0.1725,-0.0056 l 0.1725,-0.0040 l 0.1725,-0.0024 l 0.1725,-0.0008 l 0.1725,0.0008 l 0.1725,0.0024 l 0.1725,0.0040 l 0.1725,0.0056 l 0.1725,0.0073 l 0.1725,0.0088 l 0.1725,0.0104 l 0.1725,0.0120 l 0.1725,0.0136 l 0.1725,0.0151 l 0.1725,0.0167 l 0.1725,0.0182 l 0.1725,0.0197 l 0.1725,0.0212 l 0.1725,0.0226 ZM 972.4062,270.3493 l -0.0000,-5.5188 l -0.1725,-0.0241 l -0.1725,-0.0226 l -0.1725,-0.0212 l -0.1725,-0.0197 l -0.1725,-0.0182 l -0.1725,-0.0167 l -0.1725,-0.0151 l -0.1725,-0.0136 l -0.1725,-0.0120 l -0.1725,-0.0104 l -0.1725,-0.0088 l -0.1725,-0.0073 l -0.1725,-0.0056 l -0.1725,-0.0040 l -0.1725,-0.0024 l -0.1725,-0.0008 l -0.1725,0.0008 l -0.1725,0.0024 l -0.1725,0.0040 l -0.1725,0.0056 l -0.1725,0.0073 l -0.1725,0.0088 l -0.1725,0.0104 l -0.1725,0.0120 l -0.1725,0.0136 l -0.1725,0.0151 l -0.1725,0.0167 l -0.1725,0.0182 l -0.1725,0.0197 l -0.1725,0.0212 l -0.1725,0.0226 l -0.1725,0.0241 l -0.0000,5.5188 l 0.1725,-0.0241 l 0.1725,-0.0226 l 0.1725,-0.0212 l 0.1725,-0.0197 l 0.1725,-0.0182 l 0.1725,-0.0167 l 0.1725,-0.0151 l 0.1725,-0.0136 l 0.1725,-0.0120 l 0.1725,-0.0104 l 0.1725,-0.0088 l 0.1725,-0.0073 l 0.1725,-0.0056 l 0.1725,-0.0040 l 0.1725,-0.0024 l 0.1725,-0.0008 l 0.1725,0.0008 l 0.1725,0.0024 l 0.1725,0.0040 l 0.1725,0.0056 l 0.1725,0.0073 l 0.1725,0.0088 l 0.1725,0.0104 l 0.1725,0.0120 l 0.1725,0.0136 l 0.1725,0.0151 l 0.1725,0.0167 l 0.1725,0.0182 l 0.1725,0.0197 l 0.1725,0.0212 l 0.1725,0.0226 ZM 977.9249,271.6852 v -5.5188 l -0.6898,-0.2050 l -0.3449,-0.1008 l -0.3449,-0.0992 l -0.3449,-0.0971 l -0.3449,-0.0947 l -0.3449,-0.0919 l -0.3449,-0.0888 l -0.3449,-0.0853 l -0.3449,-0.0814 l -0.3449,-0.0773 l -0.1725,-0.0370 l -0.1725,-0.0359 l -0.1725,-0.0347 l -0.1725,-0.0335 l -0.1725,-0.0322 l -0.1725,-0.0309 l -0.1725,-0.0296 l -0.1725,-0.0283 l -0.1725,-0.0269 l -0.1725,-0.0255 l -0.0000,5.5188 l 0.1725,0.0255 l 0.1725,0.0269 l 0.1725,0.0283 l 0.1725,0.0296 l 0.1725,0.0309 l 0.1725,0.0322 l 0.1725,0.0335 l 0.1725,0.0347 l 0.1725,0.0359 l 0.1725,0.0370 l 0.3449,0.0773 l 0.3449,0.0814 l 0.3449,0.0853 l 0.3449,0.0888 l 0.3449,0.0919 l 0.3449,0.0947 l 0.3449,0.0971 l 0.3449,0.0992 l 0.3449,0.1008 ZM 983.4437,273.1287 v -5.5188 l -0.1725,-0.0316 l -0.1725,-0.0329 l -0.1725,-0.0341 l -0.1725,-0.0353 l -0.1725,-0.0365 l -0.1725,-0.0376 l -0.3449,-0.0784 l -0.3449,-0.0825 l -0.3449,-0.0862 l -0.3449,-0.0896 l -0.3449,-0.0927 l -0.3449,-0.0954 l -0.3449,-0.0977 l -0.3449,-0.0996 l -0.3449,-0.1012 l -0.6898,-0.2054 l -0.6898,-0.2068 v 5.5188 l 0.6898,0.2068 l 0.6898,0.2054 l 0.3449,0.1012 l 0.3449,0.0996 l 0.3449,0.0977 l 0.3449,0.0954 l 0.3449,0.0927 l 0.3449,0.0896 l 0.3449,0.0862 l 0.3449,0.0825 l 0.3449,0.0784 l 0.1725,0.0376 l 0.1725,0.0365 l 0.1725,0.0353 l 0.1725,0.0341 l 0.1725,0.0329 ZM 983.4437,273.1287 v -5.5188 l -0.1725,-0.0316 l -0.1725,-0.0329 l -0.1725,-0.0341 l -0.1725,-0.0353 l -0.1725,-0.0365 l -0.1725,-0.0376 l -0.3449,-0.0784 l -0.3449,-0.0825 l -0.3449,-0.0862 l -0.3449,-0.0896 l -0.3449,-0.0927 l -0.3449,-0.0954 l -0.3449,-0.0977 l -0.3449,-0.0996 l -0.3449,-0.1012 l -0.6898,-0.2054 l -0.6898,-0.2068 v 5.5188 l 0.6898,0.2068 l 0.6898,0.2054 l 0.3449,0.1012 l 0.3449,0.0996 l 0.3449,0.0977 l 0.3449,0.0954 l 0.3449,0.0927 l 0.3449,0.0896 l 0.3449,0.0862 l 0.3449,0.0825 l 0.3449,0.0784 l 0.1725,0.0376 l 0.1725,0.0365 l 0.1725,0.0353 l 0.1725,0.0341 l 0.1725,0.0329 ZM 988.9625,273.3527 v -5.5188 l -0.1725,0.0174 l -0.1725,0.0159 l -0.1725,0.0143 l -0.1725,0.0128 l -0.1725,0.0112 l -0.1725,0.0096 l -0.1725,0.0080 l -0.1725,0.0064 l -0.1725,0.0048 l -0.1725,0.0032 l -0.1725,0.0016 l -0.1725,-0.0001 l -0.1725,-0.0017 l -0.1725,-0.0033 l -0.1725,-0.0049 l -0.1725,-0.0065 l -0.1725,-0.0081 l -0.1725,-0.0097 l -0.1725,-0.0113 l -0.1725,-0.0128 l -0.1725,-0.0144 l -0.1725,-0.0160 l -0.1725,-0.0175 l -0.1725,-0.0190 l -0.1725,-0.0205 l -0.1725,-0.0220 l -0.1725,-0.0234 l -0.1725,-0.0248 l -0.1725,-0.0263 l -0.1725,-0.0276 l -0.1725,-0.0290 l -0.1725,-0.0303 v 5.5188 l 0.1725,0.0303 l 0.1725,0.0290 l 0.1725,0.0276 l 0.1725,0.0263 l 0.1725,0.0248 l 0.1725,0.0234 l 0.1725,0.0220 l 0.1725,0.0205 l 0.1725,0.0190 l 0.1725,0.0175 l 0.1725,0.0160 l 0.1725,0.0144 l 0.1725,0.0128 l 0.1725,0.0113 l 0.1725,0.0097 l 0.1725,0.0081 l 0.1725,0.0065 l 0.1725,0.0049 l 0.1725,0.0033 l 0.1725,0.0017 l 0.1725,0.0001 l 0.1725,-0.0016 l 0.1725,-0.0032 l 0.1725,-0.0048 l 0.1725,-0.0064 l 0.1725,-0.0080 l 0.1725,-0.0096 l 0.1725,-0.0112 l 0.1725,-0.0128 l 0.1725,-0.0143 l 0.1725,-0.0159 ZM 994.4812,272.1513 v -5.5188 l -0.3449,0.1004 l -0.3449,0.0986 l -0.3449,0.0965 l -0.3449,0.0940 l -0.3449,0.0911 l -0.3449,0.0879 l -0.3449,0.0843 l -0.3449,0.0804 l -0.3449,0.0761 l -0.1725,0.0364 l -0.1725,0.0352 l -0.1725,0.0340 l -0.1725,0.0328 l -0.1725,0.0315 l -0.1725,0.0302 l -0.1725,0.0289 l -0.1725,0.0275 l -0.1725,0.0262 l -0.1725,0.0248 l -0.1725,0.0233 l -0.1725,0.0219 l -0.1725,0.0204 l -0.1725,0.0189 v 5.5188 l 0.1725,-0.0189 l 0.1725,-0.0204 l 0.1725,-0.0219 l 0.1725,-0.0233 l 0.1725,-0.0248 l 0.1725,-0.0262 l 0.1725,-0.0275 l 0.1725,-0.0289 l 0.1725,-0.0302 l 0.1725,-0.0315 l 0.1725,-0.0328 l 0.1725,-0.0340 l 0.1725,-0.0352 l 0.1725,-0.0364 l 0.3449,-0.0761 l 0.3449,-0.0804 l 0.3449,-0.0843 l 0.3449,-0.0879 l 0.3449,-0.0911 l 0.3449,-0.0940 l 0.3449,-0.0965 l 0.3449,-0.0986 ZM 994.4812,272.1513 v -5.5188 l -0.3449,0.1004 l -0.3449,0.0986 l -0.3449,0.0965 l -0.3449,0.0940 l -0.3449,0.0911 l -0.3449,0.0879 l -0.3449,0.0843 l -0.3449,0.0804 l -0.3449,0.0761 l -0.1725,0.0364 l -0.1725,0.0352 l -0.1725,0.0340 l -0.1725,0.0328 l -0.1725,0.0315 l -0.1725,0.0302 l -0.1725,0.0289 l -0.1725,0.0275 l -0.1725,0.0262 l -0.1725,0.0248 l -0.1725,0.0233 l -0.1725,0.0219 l -0.1725,0.0204 l -0.1725,0.0189 v 5.5188 l 0.1725,-0.0189 l 0.1725,-0.0204 l 0.1725,-0.0219 l 0.1725,-0.0233 l 0.1725,-0.0248 l 0.1725,-0.0262 l 0.1725,-0.0275 l 0.1725,-0.0289 l 0.1725,-0.0302 l 0.1725,-0.0315 l 0.1725,-0.0328 l 0.1725,-0.0340 l 0.1725,-0.0352 l 0.1725,-0.0364 l 0.3449,-0.0761 l 0.3449,-0.0804 l 0.3449,-0.0843 l 0.3449,-0.0879 l 0.3449,-0.0911 l 0.3449,-0.0940 l 0.3449,-0.0965 l 0.3449,-0.0986 ZM 1000.0000,270.6290 v -5.5188 l -0.1725,0.0371 l -0.1725,0.0382 l -0.3449,0.0795 l -0.3449,0.0835 l -0.3449,0.0872 l -0.3449,0.0905 l -0.3449,0.0934 l -0.3449,0.0960 l -0.3449,0.0982 l -0.3449,0.1001 l -0.3449,0.1015 l -0.6898,0.2058 l -0.6898,0.2068 l -0.6898,0.2045 v 5.5188 l 0.6898,-0.2045 l 0.6898,-0.2068 l 0.6898,-0.2058 l 0.3449,-0.1015 l 0.3449,-0.1001 l 0.3449,-0.0982 l 0.3449,-0.0960 l 0.3449,-0.0934 l 0.3449,-0.0905 l 0.3449,-0.0872 l 0.3449,-0.0835 l 0.3449,-0.0795 l 0.1725,-0.0382 Z"/></g><g stroke-linejoin="miter" stroke-opacity="1.0" fill-opacity="1.0" stroke="rgb(0,0,0)" stroke-width="0.2759381898454747" fill="rgb(165,42,42)" stroke-linecap="butt" stroke-miterlimit="10.0"><path d="M 966.8874,303.2592 l -0.0000,-55.1876 h -2.2075 l -0.0000,55.1876 Z"/></g><g stroke-linejoin="miter" stroke-opacity="1.0" fill-opacity="1.0" stroke="rgb(0,0,0)" stroke-width="0.0" fill="rgb(244,164,96)" stroke-linecap="butt" stroke-miterlimit="10.0"><path d="M 650.4257,303.2592 c 77.4379,-21.0239 159.0806,-21.0239 236.5184 0.0000c -78.2473,13.6655 -158.2711,13.6655 -236.5184 -0.0000Z"/></g><g stroke-linejoin="miter" stroke-opacity="1.0" fill-opacity="1.0" stroke="rgb(0,0,0)" stroke-width="0.0" fill="rgb(244,164,96)" stroke-linecap="butt" stroke-miterlimit="10.0"><path d="M 413.9073,303.2592 c 50.4573,-21.0239 107.2217,-21.0239 157.6790 0.0000c -51.6714,13.6655 -106.0076,13.6655 -157.6790 -0.0000Z"/></g><g stroke-linejoin="miter" stroke-opacity="1.0" fill-opacity="1.0" stroke="rgb(0,0,0)" stroke-width="0.0" fill="rgb(244,164,96)" stroke-linecap="butt" stroke-miterlimit="10.0"><path d="M 98.5494,303.2592 c 50.4573,-21.0239 107.2217,-21.0239 157.6790 0.0000c -51.6714,13.6655 -106.0076,13.6655 -157.6790 -0.0000Z"/></g><g stroke-linejoin="miter" stroke-opacity="1.0" fill-opacity="1.0" stroke="rgb(0,0,0)" stroke-width="2.382528648838347" fill="rgb(0,0,0)" stroke-linecap="butt" stroke-miterlimit="10.0"><path d="M 969.7256,303.2592 c 0.0000,-2.1771 -1.7649,-3.9420 -3.9420 -3.9420c -2.1771,-0.0000 -3.9420,1.7649 -3.9420 3.9420c -0.0000,2.1771 1.7649,3.9420 3.9420 3.9420c 2.1771,0.0000 3.9420,-1.7649 3.9420 -3.9420Z"/></g><g stroke-linejoin="miter" stroke-opacity="1.0" fill-opacity="1.0" stroke="rgb(0,0,0)" stroke-width="2.382528648838347" fill="rgb(0,0,0)" stroke-linecap="butt" stroke-miterlimit="10.0"><path d="M 23.6518,303.2592 c 0.0000,-2.1771 -1.7649,-3.9420 -3.9420 -3.9420c -2.1771,-0.0000 -3.9420,1.7649 -3.9420 3.9420c -0.0000,2.1771 1.7649,3.9420 3.9420 3.9420c 2.1771,0.0000 3.9420,-1.7649 3.9420 -3.9420Z"/></g><g stroke-linejoin="miter" stroke-opacity="1.0" fill-opacity="0.0" stroke="rgb(0,0,0)" stroke-width="2.3651844843897827" fill="rgb(0,0,0)" stroke-dashoffset="0.0" stroke-linecap="butt" stroke-miterlimit="10.0" stroke-dasharray="6.3071586250394205,6.3071586250394205"><path d="M 19.7099,303.2592 c 11.1689,-12.1917 22.3379,-24.3833 33.5068 -34.4923c 11.1689,-10.1089 22.3379,-18.1351 33.5068 -24.6373c 11.1689,-6.5022 22.3379,-11.4805 33.5068 -14.7824c 11.1689,-3.3019 22.3379,-4.9275 33.5068 -4.9275c 11.1689,0.0000 22.3379,1.6256 33.5068 4.9275c 11.1689,3.3019 22.3379,8.2802 33.5068 14.7824c 11.1689,6.5022 22.3379,14.5284 33.5068 24.6373c 11.1689,10.1089 22.3379,22.3006 33.5068 34.4923c 15.1109,-12.1917 30.2218,-24.3833 45.3327 -34.4923c 15.1109,-10.1089 30.2218,-18.1351 45.3327 -24.6373c 15.1109,-6.5022 30.2218,-11.4805 45.3327 -14.7824c 15.1109,-3.3019 30.2218,-4.9275 45.3327 -4.9275c 15.1109,0.0000 30.2218,1.6256 45.3327 4.9275c 15.1109,3.3019 30.2218,8.2802 45.3327 14.7824c 15.1109,6.5022 30.2218,14.5284 45.3327 24.6373c 15.1109,10.1089 30.2218,22.3006 45.3327 34.4923c 13.1399,-12.1917 26.2798,-24.3833 39.4197 -34.4923c 13.1399,-10.1089 26.2798,-18.1351 39.4197 -24.6373c 13.1399,-6.5022 26.2798,-11.4805 39.4197 -14.7824c 13.1399,-3.3019 26.2798,-4.9275 39.4197 -4.9275c 13.1399,0.0000 26.2798,1.6256 39.4197 4.9275c 13.1399,3.3019 26.2798,8.2802 39.4197 14.7824c 13.1399,6.5022 26.2798,14.5284 39.4197 24.6373c 13.1399,10.1089 26.2798,22.3006 39.4197 34.4923"/></g><g stroke-linejoin="miter" stroke-opacity="1.0" fill-opacity="0.0" stroke="rgb(0,0,0)" stroke-width="1.1912643244191734" fill="rgb(0,0,0)" stroke-linecap="butt" stroke-miterlimit="10.0"><path d="M 137.9691,125.8704 h 709.5553 "/></g><g stroke-linejoin="miter" stroke-opacity="1.0" fill-opacity="1.0" font-size="18.92147587511826px" stroke="rgb(0,0,0)" stroke-width="1.1912643244191734" fill="rgb(0,0,0)" stroke-linecap="butt" font-family="monospace" stroke-miterlimit="10.0"><text dominant-baseline="middle" transform="matrix(1.0000,0.0000,0.0000,1.0000,847.5244,145.5803)" stroke="none" text-anchor="middle">9</text></g><g stroke-linejoin="miter" stroke-opacity="1.0" fill-opacity="0.0" stroke="rgb(0,0,0)" stroke-width="1.1912643244191734" fill="rgb(0,0,0)" stroke-linecap="butt" stroke-miterlimit="10.0"><path d="M 847.5244,131.7833 v -11.8259 "/></g><g stroke-linejoin="miter" stroke-opacity="1.0" fill-opacity="0.0" stroke="rgb(0,0,0)" stroke-width="1.1912643244191734" fill="rgb(0,0,0)" stroke-linecap="butt" stroke-miterlimit="10.0"><path d="M 768.6850,129.0240 v -6.3072 "/></g><g stroke-linejoin="miter" stroke-opacity="1.0" fill-opacity="0.0" stroke="rgb(0,0,0)" stroke-width="1.1912643244191734" fill="rgb(0,0,0)" stroke-linecap="butt" stroke-miterlimit="10.0"><path d="M 689.8455,129.0240 v -6.3072 "/></g><g stroke-linejoin="miter" stroke-opacity="1.0" fill-opacity="1.0" font-size="18.92147587511826px" stroke="rgb(0,0,0)" stroke-width="1.1912643244191734" fill="rgb(0,0,0)" stroke-linecap="butt" font-family="monospace" stroke-miterlimit="10.0"><text dominant-baseline="middle" transform="matrix(1.0000,0.0000,0.0000,1.0000,611.0060,145.5803)" stroke="none" text-anchor="middle">6</text></g><g stroke-linejoin="miter" stroke-opacity="1.0" fill-opacity="0.0" stroke="rgb(0,0,0)" stroke-width="1.1912643244191734" fill="rgb(0,0,0)" stroke-linecap="butt" stroke-miterlimit="10.0"><path d="M 611.0060,131.7833 v -11.8259 "/></g><g stroke-linejoin="miter" stroke-opacity="1.0" fill-opacity="0.0" stroke="rgb(0,0,0)" stroke-width="1.1912643244191734" fill="rgb(0,0,0)" stroke-linecap="butt" stroke-miterlimit="10.0"><path d="M 532.1665,129.0240 v -6.3072 "/></g><g stroke-linejoin="miter" stroke-opacity="1.0" fill-opacity="0.0" stroke="rgb(0,0,0)" stroke-width="1.1912643244191734" fill="rgb(0,0,0)" stroke-linecap="butt" stroke-miterlimit="10.0"><path d="M 453.3270,129.0240 v -6.3072 "/></g><g stroke-linejoin="miter" stroke-opacity="1.0" fill-opacity="1.0" font-size="18.92147587511826px" stroke="rgb(0,0,0)" stroke-width="1.1912643244191734" fill="rgb(0,0,0)" stroke-linecap="butt" font-family="monospace" stroke-miterlimit="10.0"><text dominant-baseline="middle" transform="matrix(1.0000,0.0000,0.0000,1.0000,374.4875,145.5803)" stroke="none" text-anchor="middle">3</text></g><g stroke-linejoin="miter" stroke-opacity="1.0" fill-opacity="0.0" stroke="rgb(0,0,0)" stroke-width="1.1912643244191734" fill="rgb(0,0,0)" stroke-linecap="butt" stroke-miterlimit="10.0"><path d="M 374.4875,131.7833 v -11.8259 "/></g><g stroke-linejoin="miter" stroke-opacity="1.0" fill-opacity="0.0" stroke="rgb(0,0,0)" stroke-width="1.1912643244191734" fill="rgb(0,0,0)" stroke-linecap="butt" stroke-miterlimit="10.0"><path d="M 295.6481,129.0240 v -6.3072 "/></g><g stroke-linejoin="miter" stroke-opacity="1.0" fill-opacity="0.0" stroke="rgb(0,0,0)" stroke-width="1.1912643244191734" fill="rgb(0,0,0)" stroke-linecap="butt" stroke-miterlimit="10.0"><path d="M 216.8086,129.0240 v -6.3072 "/></g><g stroke-linejoin="miter" stroke-opacity="1.0" fill-opacity="1.0" font-size="18.92147587511826px" stroke="rgb(0,0,0)" stroke-width="1.1912643244191734" fill="rgb(0,0,0)" stroke-linecap="butt" font-family="monospace" stroke-miterlimit="10.0"><text dominant-baseline="middle" transform="matrix(1.0000,0.0000,0.0000,1.0000,137.9691,145.5803)" stroke="none" text-anchor="middle">0</text></g><g stroke-linejoin="miter" stroke-opacity="1.0" fill-opacity="0.0" stroke="rgb(0,0,0)" stroke-width="1.1912643244191734" fill="rgb(0,0,0)" stroke-linecap="butt" stroke-miterlimit="10.0"><path d="M 137.9691,131.7833 v -11.8259 "/></g><g stroke-linejoin="miter" stroke-opacity="1.0" fill-opacity="1.0" stroke="rgb(30,144,255)" stroke-width="1.5767896562598551" fill="rgb(30,144,255)" stroke-linecap="butt" stroke-miterlimit="10.0"><path d="M 118.2592,83.6913 c 2.6280,1.8207 5.2560,3.6414 7.8839 3.1536c 2.6280,-0.4879 5.2560,-3.2843 7.8839 -3.1536c 2.6280,0.1307 5.2560,3.1886 7.8839 3.1536c 2.6280,-0.0350 5.2560,-3.1630 7.8839 -3.1536c 2.6280,0.0094 5.2560,3.1561 7.8839 3.1536c 2.6280,-0.0025 5.2560,-3.1543 7.8839 -3.1536c 2.6280,0.0007 5.2560,3.1538 7.8839 3.1536c 2.6280,-0.0002 5.2560,-3.1536 7.8839 -3.1536c 2.6280,0.0000 5.2560,3.1536 7.8839 3.1536c 2.6280,-0.0000 5.2560,-3.1536 7.8839 -3.1536c 2.6280,0.0000 5.2560,3.1536 7.8839 3.1536c 2.6280,-0.0000 5.2560,-3.1536 7.8839 -3.1536c 2.6280,0.0000 5.2560,3.1536 7.8839 3.1536c 2.6280,-0.0000 5.2560,-3.1536 7.8839 -3.1536c 2.6280,0.0000 5.2560,3.1536 7.8839 3.1536c 2.6280,-0.0000 5.2560,-3.1536 7.8839 -3.1536c 2.6280,0.0000 5.2560,3.1536 7.8839 3.1536c 2.6280,-0.0000 5.2560,-3.1536 7.8839 -3.1536c 2.6280,0.0000 5.2560,3.1536 7.8839 3.1536c 2.6280,-0.0000 5.2560,-3.1536 7.8839 -3.1536c 2.6280,0.0000 5.2560,3.1536 7.8839 3.1536c 2.6280,-0.0000 5.2560,-3.1536 7.8839 -3.1536c 2.6280,0.0000 5.2560,3.1536 7.8839 3.1536c 2.6280,-0.0000 5.2560,-3.1536 7.8839 -3.1536c 2.6280,0.0000 5.2560,3.1536 7.8839 3.1536c 2.6280,-0.0000 5.2560,-3.1536 7.8839 -3.1536c 2.6280,0.0000 5.2560,3.1536 7.8839 3.1536c 2.6280,-0.0000 5.2560,-3.1536 7.8839 -3.1536c 2.6280,0.0000 5.2560,3.1536 7.8839 3.1536c 2.6280,0.0000 5.2560,-3.1536 7.8839 -3.1536c 2.6280,-0.0000 5.2560,3.1536 7.8839 3.1536c 2.6280,0.0000 5.2560,-3.1536 7.8839 -3.1536c 2.6280,-0.0000 5.2560,3.1536 7.8839 3.1536c 2.6280,0.0000 5.2560,-3.1536 7.8839 -3.1536c 2.6280,-0.0000 5.2560,3.1536 7.8839 3.1536c 2.6280,0.0000 5.2560,-3.1536 7.8839 -3.1536c 2.6280,-0.0000 5.2560,3.1536 7.8839 3.1536c 2.6280,0.0000 5.2560,-3.1536 7.8839 -3.1536c 2.6280,-0.0000 5.2560,3.1536 7.8839 3.1536c 2.6280,0.0000 5.2560,-3.1536 7.8839 -3.1536c 2.6280,-0.0000 5.2560,3.1536 7.8839 3.1536c 2.6280,0.0000 5.2560,-3.1536 7.8839 -3.1536c 2.6280,-0.0000 5.2560,3.1536 7.8839 3.1536c 2.6280,0.0000 5.2560,-3.1536 7.8839 -3.1536c 2.6280,-0.0000 5.2560,3.1536 7.8839 3.1536c 2.6280,0.0000 5.2560,-3.1536 7.8839 -3.1536c 2.6280,-0.0000 5.2560,3.1536 7.8839 3.1536c 2.6280,0.0000 5.2560,-3.1536 7.8839 -3.1536c 2.6280,-0.0000 5.2560,3.1536 7.8839 3.1536c 2.6280,0.0000 5.2560,-3.1536 7.8839 -3.1536c 2.6280,-0.0000 5.2560,3.1536 7.8839 3.1536c 2.6280,0.0000 5.2560,-3.1536 7.8839 -3.1536c 2.6280,-0.0000 5.2560,3.1536 7.8839 3.1536c 2.6280,0.0000 5.2560,-3.1536 7.8839 -3.1536c 2.6280,-0.0000 5.2560,3.1536 7.8839 3.1536c 2.6280,0.0000 5.2560,-3.1536 7.8839 -3.1536c 2.6280,-0.0000 5.2560,3.1536 7.8839 3.1536c 2.6280,0.0000 5.2560,-3.1536 7.8839 -3.1536c 2.6280,-0.0000 5.2560,3.1536 7.8839 3.1536c 2.6280,0.0000 5.2560,-3.1536 7.8839 -3.1536c 2.6280,-0.0000 5.2560,3.1536 7.8839 3.1536c 2.6280,0.0000 5.2560,-3.1536 7.8839 -3.1536c 2.6280,-0.0000 5.2560,3.1536 7.8839 3.1536c 2.6280,0.0000 5.2560,-3.1536 7.8839 -3.1536c 2.6280,-0.0000 5.2560,3.1536 7.8839 3.1536c 2.6280,0.0000 5.2560,-3.1536 7.8839 -3.1536c 2.6280,-0.0000 5.2560,3.1536 7.8839 3.1536c 2.6280,0.0000 5.2560,-3.1536 7.8839 -3.1536c 2.6280,-0.0000 5.2560,3.1536 7.8839 3.1536c 2.6280,0.0000 5.2560,-3.1536 7.8839 -3.1536c 2.6280,-0.0000 5.2560,3.1536 7.8839 3.1536c 2.6280,0.0000 5.2560,-3.1536 7.8839 -3.1536c 2.6280,-0.0000 5.2560,3.1536 7.8839 3.1536c 2.6280,0.0000 5.2560,-3.1536 7.8839 -3.1536c 2.6280,-0.0000 5.2560,3.1536 7.8839 3.1536c 2.6280,0.0000 5.2560,-3.1536 7.8839 -3.1536c 2.6280,-0.0000 5.2560,3.1536 7.8839 3.1536c 2.6280,0.0000 5.2560,-3.1536 7.8839 -3.1536c 2.6280,-0.0000 5.2560,3.1536 7.8839 3.1536c 2.6280,0.0000 5.2560,-3.1536 7.8839 -3.1536c 2.6280,-0.0000 5.2560,3.1536 7.8839 3.1536c 2.6280,0.0000 5.2560,-3.1536 7.8839 -3.1536c 2.6280,-0.0000 5.2560,3.1536 7.8839 3.1536c 2.6280,0.0000 5.2560,-3.1536 7.8839 -3.1536c 2.6280,-0.0000 5.2560,3.1536 7.8839 3.1536c 2.6280,0.0000 5.2560,-3.1536 7.8839 -3.1536c 2.6280,-0.0000 5.2560,3.1535 7.8839 3.1536c 2.6280,0.0000 5.2560,-3.1534 7.8839 -3.1536c 2.6280,-0.0002 5.2560,3.1529 7.8839 3.1536c 2.6280,0.0007 5.2560,-3.1511 7.8839 -3.1536c 2.6280,-0.0025 5.2560,3.1442 7.8839 3.1536c 2.6280,0.0094 5.2560,-3.1186 7.8839 -3.1536c 2.6280,-0.0350 5.2560,3.0229 7.8839 3.1536c 2.6280,0.1307 5.2560,-2.6657 7.8839 -3.1536c 2.6280,-0.4879 5.2560,1.3329 7.8839 3.1536v 15.7679 h -748.9751 Z"/></g><g stroke-linejoin="miter" stroke-opacity="1.0" fill-opacity="1.0" stroke="rgb(0,0,0)" fill-rule="evenodd" stroke-width="0.2759381898454747" fill="rgb(0,0,0)" stroke-linecap="butt" stroke-miterlimit="10.0"><path d="M 854.1470,36.9845 l -0.0000,-5.5188 l -0.1725,-0.0241 l -0.1725,-0.0226 l -0.1725,-0.0212 l -0.1725,-0.0197 l -0.1725,-0.0182 l -0.1725,-0.0167 l -0.1725,-0.0151 l -0.1725,-0.0136 l -0.1725,-0.0120 l -0.1725,-0.0104 l -0.1725,-0.0088 l -0.1725,-0.0073 l -0.1725,-0.0056 l -0.1725,-0.0040 l -0.1725,-0.0024 l -0.1725,-0.0008 l -0.1725,0.0008 l -0.1725,0.0024 l -0.1725,0.0040 l -0.1725,0.0056 l -0.1725,0.0073 l -0.1725,0.0088 l -0.1725,0.0104 l -0.1725,0.0120 l -0.1725,0.0136 l -0.1725,0.0151 l -0.1725,0.0167 l -0.1725,0.0182 l -0.1725,0.0197 l -0.1725,0.0212 l -0.1725,0.0226 l -0.1725,0.0241 l -0.0000,5.5188 l 0.1725,-0.0241 l 0.1725,-0.0226 l 0.1725,-0.0212 l 0.1725,-0.0197 l 0.1725,-0.0182 l 0.1725,-0.0167 l 0.1725,-0.0151 l 0.1725,-0.0136 l 0.1725,-0.0120 l 0.1725,-0.0104 l 0.1725,-0.0088 l 0.1725,-0.0073 l 0.1725,-0.0056 l 0.1725,-0.0040 l 0.1725,-0.0024 l 0.1725,-0.0008 l 0.1725,0.0008 l 0.1725,0.0024 l 0.1725,0.0040 l 0.1725,0.0056 l 0.1725,0.0073 l 0.1725,0.0088 l 0.1725,0.0104 l 0.1725,0.0120 l 0.1725,0.0136 l 0.1725,0.0151 l 0.1725,0.0167 l 0.1725,0.0182 l 0.1725,0.0197 l 0.1725,0.0212 l 0.1725,0.0226 ZM 859.6657,38.3203 v -5.5188 l -0.6898,-0.2050 l -0.3449,-0.1008 l -0.3449,-0.0992 l -0.3449,-0.0971 l -0.3449,-0.0947 l -0.3449,-0.0919 l -0.3449,-0.0888 l -0.3449,-0.0853 l -0.3449,-0.0814 l -0.3449,-0.0773 l -0.1725,-0.0370 l -0.1725,-0.0359 l -0.1725,-0.0347 l -0.1725,-0.0335 l -0.1725,-0.0322 l -0.1725,-0.0309 l -0.1725,-0.0296 l -0.1725,-0.0283 l -0.1725,-0.0269 l -0.1725,-0.0255 l -0.0000,5.5188 l 0.1725,0.0255 l 0.1725,0.0269 l 0.1725,0.0283 l 0.1725,0.0296 l 0.1725,0.0309 l 0.1725,0.0322 l 0.1725,0.0335 l 0.1725,0.0347 l 0.1725,0.0359 l 0.1725,0.0370 l 0.3449,0.0773 l 0.3449,0.0814 l 0.3449,0.0853 l 0.3449,0.0888 l 0.3449,0.0919 l 0.3449,0.0947 l 0.3449,0.0971 l 0.3449,0.0992 l 0.3449,0.1008 ZM 859.6657,38.3203 v -5.5188 l -0.6898,-0.2050 l -0.3449,-0.1008 l -0.3449,-0.0992 l -0.3449,-0.0971 l -0.3449,-0.0947 l -0.3449,-0.0919 l -0.3449,-0.0888 l -0.3449,-0.0853 l -0.3449,-0.0814 l -0.3449,-0.0773 l -0.1725,-0.0370 l -0.1725,-0.0359 l -0.1725,-0.0347 l -0.1725,-0.0335 l -0.1725,-0.0322 l -0.1725,-0.0309 l -0.1725,-0.0296 l -0.1725,-0.0283 l -0.1725,-0.0269 l -0.1725,-0.0255 l -0.0000,5.5188 l 0.1725,0.0255 l 0.1725,0.0269 l 0.1725,0.0283 l 0.1725,0.0296 l 0.1725,0.0309 l 0.1725,0.0322 l 0.1725,0.0335 l 0.1725,0.0347 l 0.1725,0.0359 l 0.1725,0.0370 l 0.3449,0.0773 l 0.3449,0.0814 l 0.3449,0.0853 l 0.3449,0.0888 l 0.3449,0.0919 l 0.3449,0.0947 l 0.3449,0.0971 l 0.3449,0.0992 l 0.3449,0.1008 ZM 865.1845,39.7638 v -5.5188 l -0.1725,-0.0316 l -0.1725,-0.0329 l -0.1725,-0.0341 l -0.1725,-0.0353 l -0.1725,-0.0365 l -0.1725,-0.0376 l -0.3449,-0.0784 l -0.3449,-0.0825 l -0.3449,-0.0862 l -0.3449,-0.0896 l -0.3449,-0.0927 l -0.3449,-0.0954 l -0.3449,-0.0977 l -0.3449,-0.0996 l -0.3449,-0.1012 l -0.6898,-0.2054 l -0.6898,-0.2068 v 5.5188 l 0.6898,0.2068 l 0.6898,0.2054 l 0.3449,0.1012 l 0.3449,0.0996 l 0.3449,0.0977 l 0.3449,0.0954 l 0.3449,0.0927 l 0.3449,0.0896 l 0.3449,0.0862 l 0.3449,0.0825 l 0.3449,0.0784 l 0.1725,0.0376 l 0.1725,0.0365 l 0.1725,0.0353 l 0.1725,0.0341 l 0.1725,0.0329 ZM 870.7032,39.9878 v -5.5188 l -0.1725,0.0174 l -0.1725,0.0159 l -0.1725,0.0143 l -0.1725,0.0128 l -0.1725,0.0112 l -0.1725,0.0096 l -0.1725,0.0080 l -0.1725,0.0064 l -0.1725,0.0048 l -0.1725,0.0032 l -0.1725,0.0016 l -0.1725,-0.0001 l -0.1725,-0.0017 l -0.1725,-0.0033 l -0.1725,-0.0049 l -0.1725,-0.0065 l -0.1725,-0.0081 l -0.1725,-0.0097 l -0.1725,-0.0113 l -0.1725,-0.0128 l -0.1725,-0.0144 l -0.1725,-0.0160 l -0.1725,-0.0175 l -0.1725,-0.0190 l -0.1725,-0.0205 l -0.1725,-0.0220 l -0.1725,-0.0234 l -0.1725,-0.0248 l -0.1725,-0.0263 l -0.1725,-0.0276 l -0.1725,-0.0290 l -0.1725,-0.0303 v 5.5188 l 0.1725,0.0303 l 0.1725,0.0290 l 0.1725,0.0276 l 0.1725,0.0263 l 0.1725,0.0248 l 0.1725,0.0234 l 0.1725,0.0220 l 0.1725,0.0205 l 0.1725,0.0190 l 0.1725,0.0175 l 0.1725,0.0160 l 0.1725,0.0144 l 0.1725,0.0128 l 0.1725,0.0113 l 0.1725,0.0097 l 0.1725,0.0081 l 0.1725,0.0065 l 0.1725,0.0049 l 0.1725,0.0033 l 0.1725,0.0017 l 0.1725,0.0001 l 0.1725,-0.0016 l 0.1725,-0.0032 l 0.1725,-0.0048 l 0.1725,-0.0064 l 0.1725,-0.0080 l 0.1725,-0.0096 l 0.1725,-0.0112 l 0.1725,-0.0128 l 0.1725,-0.0143 l 0.1725,-0.0159 ZM 870.7032,39.9878 v -5.5188 l -0.1725,0.0174 l -0.1725,0.0159 l -0.1725,0.0143 l -0.1725,0.0128 l -0.1725,0.0112 l -0.1725,0.0096 l -0.1725,0.0080 l -0.1725,0.0064 l -0.1725,0.0048 l -0.1725,0.0032 l -0.1725,0.0016 l -0.1725,-0.0001 l -0.1725,-0.0017 l -0.1725,-0.0033 l -0.1725,-0.0049 l -0.1725,-0.0065 l -0.1725,-0.0081 l -0.1725,-0.0097 l -0.1725,-0.0113 l -0.1725,-0.0128 l -0.1725,-0.0144 l -0.1725,-0.0160 l -0.1725,-0.0175 l -0.1725,-0.0190 l -0.1725,-0.0205 l -0.1725,-0.0220 l -0.1725,-0.0234 l -0.1725,-0.0248 l -0.1725,-0.0263 l -0.1725,-0.0276 l -0.1725,-0.0290 l -0.1725,-0.0303 v 5.5188 l 0.1725,0.0303 l 0.1725,0.0290 l 0.1725,0.0276 l 0.1725,0.0263 l 0.1725,0.0248 l 0.1725,0.0234 l 0.1725,0.0220 l 0.1725,0.0205 l 0.1725,0.0190 l 0.1725,0.0175 l 0.1725,0.0160 l 0.1725,0.0144 l 0.1725,0.0128 l 0.1725,0.0113 l 0.1725,0.0097 l 0.1725,0.0081 l 0.1725,0.0065 l 0.1725,0.0049 l 0.1725,0.0033 l 0.1725,0.0017 l 0.1725,0.0001 l 0.1725,-0.0016 l 0.1725,-0.0032 l 0.1725,-0.0048 l 0.1725,-0.0064 l 0.1725,-0.0080 l 0.1725,-0.0096 l 0.1725,-0.0112 l 0.1725,-0.0128 l 0.1725,-0.0143 l 0.1725,-0.0159 ZM 876.2220,38.7864 v -5.5188 l -0.3449,0.1004 l -0.3449,0.0986 l -0.3449,0.0965 l -0.3449,0.0940 l -0.3449,0.0911 l -0.3449,0.0879 l -0.3449,0.0843 l -0.3449,0.0804 l -0.3449,0.0761 l -0.1725,0.0364 l -0.1725,0.0352 l -0.1725,0.0340 l -0.1725,0.0328 l -0.1725,0.0315 l -0.1725,0.0302 l -0.1725,0.0289 l -0.1725,0.0275 l -0.1725,0.0262 l -0.1725,0.0248 l -0.1725,0.0233 l -0.1725,0.0219 l -0.1725,0.0204 l -0.1725,0.0189 v 5.5188 l 0.1725,-0.0189 l 0.1725,-0.0204 l 0.1725,-0.0219 l 0.1725,-0.0233 l 0.1725,-0.0248 l 0.1725,-0.0262 l 0.1725,-0.0275 l 0.1725,-0.0289 l 0.1725,-0.0302 l 0.1725,-0.0315 l 0.1725,-0.0328 l 0.1725,-0.0340 l 0.1725,-0.0352 l 0.1725,-0.0364 l 0.3449,-0.0761 l 0.3449,-0.0804 l 0.3449,-0.0843 l 0.3449,-0.0879 l 0.3449,-0.0911 l 0.3449,-0.0940 l 0.3449,-0.0965 l 0.3449,-0.0986 ZM 881.7408,37.2641 v -5.5188 l -0.1725,0.0371 l -0.1725,0.0382 l -0.3449,0.0795 l -0.3449,0.0835 l -0.3449,0.0872 l -0.3449,0.0905 l -0.3449,0.0934 l -0.3449,0.0960 l -0.3449,0.0982 l -0.3449,0.1001 l -0.3449,0.1015 l -0.6898,0.2058 l -0.6898,0.2068 l -0.6898,0.2045 v 5.5188 l 0.6898,-0.2045 l 0.6898,-0.2068 l 0.6898,-0.2058 l 0.3449,-0.1015 l 0.3449,-0.1001 l 0.3449,-0.0982 l 0.3449,-0.0960 l 0.3449,-0.0934 l 0.3449,-0.0905 l 0.3449,-0.0872 l 0.3449,-0.0835 l 0.3449,-0.0795 l 0.1725,-0.0382 ZM 881.7408,37.2641 v -5.5188 l -0.1725,0.0371 l -0.1725,0.0382 l -0.3449,0.0795 l -0.3449,0.0835 l -0.3449,0.0872 l -0.3449,0.0905 l -0.3449,0.0934 l -0.3449,0.0960 l -0.3449,0.0982 l -0.3449,0.1001 l -0.3449,0.1015 l -0.6898,0.2058 l -0.6898,0.2068 l -0.6898,0.2045 v 5.5188 l 0.6898,-0.2045 l 0.6898,-0.2068 l 0.6898,-0.2058 l 0.3449,-0.1015 l 0.3449,-0.1001 l 0.3449,-0.0982 l 0.3449,-0.0960 l 0.3449,-0.0934 l 0.3449,-0.0905 l 0.3449,-0.0872 l 0.3449,-0.0835 l 0.3449,-0.0795 l 0.1725,-0.0382 ZM 854.1470,42.5032 l -0.0000,-5.5188 l -0.1725,-0.0241 l -0.1725,-0.0226 l -0.1725,-0.0212 l -0.1725,-0.0197 l -0.1725,-0.0182 l -0.1725,-0.0167 l -0.1725,-0.0151 l -0.1725,-0.0136 l -0.1725,-0.0120 l -0.1725,-0.0104 l -0.1725,-0.0088 l -0.1725,-0.0073 l -0.1725,-0.0056 l -0.1725,-0.0040 l -0.1725,-0.0024 l -0.1725,-0.0008 l -0.1725,0.0008 l -0.1725,0.0024 l -0.1725,0.0040 l -0.1725,0.0056 l -0.1725,0.0073 l -0.1725,0.0088 l -0.1725,0.0104 l -0.1725,0.0120 l -0.1725,0.0136 l -0.1725,0.0151 l -0.1725,0.0167 l -0.1725,0.0182 l -0.1725,0.0197 l -0.1725,0.0212 l -0.1725,0.0226 l -0.1725,0.0241 l -0.0000,5.5188 l 0.1725,-0.0241 l 0.1725,-0.0226 l 0.1725,-0.0212 l 0.1725,-0.0197 l 0.1725,-0.0182 l 0.1725,-0.0167 l 0.1725,-0.0151 l 0.1725,-0.0136 l 0.1725,-0.0120 l 0.1725,-0.0104 l 0.1725,-0.0088 l 0.1725,-0.0073 l 0.1725,-0.0056 l 0.1725,-0.0040 l 0.1725,-0.0024 l 0.1725,-0.0008 l 0.1725,0.0008 l 0.1725,0.0024 l 0.1725,0.0040 l 0.1725,0.0056 l 0.1725,0.0073 l 0.1725,0.0088 l 0.1725,0.0104 l 0.1725,0.0120 l 0.1725,0.0136 l 0.1725,0.0151 l 0.1725,0.0167 l 0.1725,0.0182 l 0.1725,0.0197 l 0.1725,0.0212 l 0.1725,0.0226 ZM 854.1470,42.5032 l -0.0000,-5.5188 l -0.1725,-0.0241 l -0.1725,-0.0226 l -0.1725,-0.0212 l -0.1725,-0.0197 l -0.1725,-0.0182 l -0.1725,-0.0167 l -0.1725,-0.0151 l -0.1725,-0.0136 l -0.1725,-0.0120 l -0.1725,-0.0104 l -0.1725,-0.0088 l -0.1725,-0.0073 l -0.1725,-0.0056 l -0.1725,-0.0040 l -0.1725,-0.0024 l -0.1725,-0.0008 l -0.1725,0.0008 l -0.1725,0.0024 l -0.1725,0.0040 l -0.1725,0.0056 l -0.1725,0.0073 l -0.1725,0.0088 l -0.1725,0.0104 l -0.1725,0.0120 l -0.1725,0.0136 l -0.1725,0.0151 l -0.1725,0.0167 l -0.1725,0.0182 l -0.1725,0.0197 l -0.1725,0.0212 l -0.1725,0.0226 l -0.1725,0.0241 l -0.0000,5.5188 l 0.1725,-0.0241 l 0.1725,-0.0226 l 0.1725,-0.0212 l 0.1725,-0.0197 l 0.1725,-0.0182 l 0.1725,-0.0167 l 0.1725,-0.0151 l 0.1725,-0.0136 l 0.1725,-0.0120 l 0.1725,-0.0104 l 0.1725,-0.0088 l 0.1725,-0.0073 l 0.1725,-0.0056 l 0.1725,-0.0040 l 0.1725,-0.0024 l 0.1725,-0.0008 l 0.1725,0.0008 l 0.1725,0.0024 l 0.1725,0.0040 l 0.1725,0.0056 l 0.1725,0.0073 l 0.1725,0.0088 l 0.1725,0.0104 l 0.1725,0.0120 l 0.1725,0.0136 l 0.1725,0.0151 l 0.1725,0.0167 l 0.1725,0.0182 l 0.1725,0.0197 l 0.1725,0.0212 l 0.1725,0.0226 ZM 859.6657,43.8391 v -5.5188 l -0.6898,-0.2050 l -0.3449,-0.1008 l -0.3449,-0.0992 l -0.3449,-0.0971 l -0.3449,-0.0947 l -0.3449,-0.0919 l -0.3449,-0.0888 l -0.3449,-0.0853 l -0.3449,-0.0814 l -0.3449,-0.0773 l -0.1725,-0.0370 l -0.1725,-0.0359 l -0.1725,-0.0347 l -0.1725,-0.0335 l -0.1725,-0.0322 l -0.1725,-0.0309 l -0.1725,-0.0296 l -0.1725,-0.0283 l -0.1725,-0.0269 l -0.1725,-0.0255 l -0.0000,5.5188 l 0.1725,0.0255 l 0.1725,0.0269 l 0.1725,0.0283 l 0.1725,0.0296 l 0.1725,0.0309 l 0.1725,0.0322 l 0.1725,0.0335 l 0.1725,0.0347 l 0.1725,0.0359 l 0.1725,0.0370 l 0.3449,0.0773 l 0.3449,0.0814 l 0.3449,0.0853 l 0.3449,0.0888 l 0.3449,0.0919 l 0.3449,0.0947 l 0.3449,0.0971 l 0.3449,0.0992 l 0.3449,0.1008 ZM 865.1845,45.2826 v -5.5188 l -0.1725,-0.0316 l -0.1725,-0.0329 l -0.1725,-0.0341 l -0.1725,-0.0353 l -0.1725,-0.0365 l -0.1725,-0.0376 l -0.3449,-0.0784 l -0.3449,-0.0825 l -0.3449,-0.0862 l -0.3449,-0.0896 l -0.3449,-0.0927 l -0.3449,-0.0954 l -0.3449,-0.0977 l -0.3449,-0.0996 l -0.3449,-0.1012 l -0.6898,-0.2054 l -0.6898,-0.2068 v 5.5188 l 0.6898,0.2068 l 0.6898,0.2054 l 0.3449,0.1012 l 0.3449,0.0996 l 0.3449,0.0977 l 0.3449,0.0954 l 0.3449,0.0927 l 0.3449,0.0896 l 0.3449,0.0862 l 0.3449,0.0825 l 0.3449,0.0784 l 0.1725,0.0376 l 0.1725,0.0365 l 0.1725,0.0353 l 0.1725,0.0341 l 0.1725,0.0329 ZM 865.1845,45.2826 v -5.5188 l -0.1725,-0.0316 l -0.1725,-0.0329 l -0.1725,-0.0341 l -0.1725,-0.0353 l -0.1725,-0.0365 l -0.1725,-0.0376 l -0.3449,-0.0784 l -0.3449,-0.0825 l -0.3449,-0.0862 l -0.3449,-0.0896 l -0.3449,-0.0927 l -0.3449,-0.0954 l -0.3449,-0.0977 l -0.3449,-0.0996 l -0.3449,-0.1012 l -0.6898,-0.2054 l -0.6898,-0.2068 v 5.5188 l 0.6898,0.2068 l 0.6898,0.2054 l 0.3449,0.1012 l 0.3449,0.0996 l 0.3449,0.0977 l 0.3449,0.0954 l 0.3449,0.0927 l 0.3449,0.0896 l 0.3449,0.0862 l 0.3449,0.0825 l 0.3449,0.0784 l 0.1725,0.0376 l 0.1725,0.0365 l 0.1725,0.0353 l 0.1725,0.0341 l 0.1725,0.0329 ZM 870.7032,45.5066 v -5.5188 l -0.1725,0.0174 l -0.1725,0.0159 l -0.1725,0.0143 l -0.1725,0.0128 l -0.1725,0.0112 l -0.1725,0.0096 l -0.1725,0.0080 l -0.1725,0.0064 l -0.1725,0.0048 l -0.1725,0.0032 l -0.1725,0.0016 l -0.1725,-0.0001 l -0.1725,-0.0017 l -0.1725,-0.0033 l -0.1725,-0.0049 l -0.1725,-0.0065 l -0.1725,-0.0081 l -0.1725,-0.0097 l -0.1725,-0.0113 l -0.1725,-0.0128 l -0.1725,-0.0144 l -0.1725,-0.0160 l -0.1725,-0.0175 l -0.1725,-0.0190 l -0.1725,-0.0205 l -0.1725,-0.0220 l -0.1725,-0.0234 l -0.1725,-0.0248 l -0.1725,-0.0263 l -0.1725,-0.0276 l -0.1725,-0.0290 l -0.1725,-0.0303 v 5.5188 l 0.1725,0.0303 l 0.1725,0.0290 l 0.1725,0.0276 l 0.1725,0.0263 l 0.1725,0.0248 l 0.1725,0.0234 l 0.1725,0.0220 l 0.1725,0.0205 l 0.1725,0.0190 l 0.1725,0.0175 l 0.1725,0.0160 l 0.1725,0.0144 l 0.1725,0.0128 l 0.1725,0.0113 l 0.1725,0.0097 l 0.1725,0.0081 l 0.1725,0.0065 l 0.1725,0.0049 l 0.1725,0.0033 l 0.1725,0.0017 l 0.1725,0.0001 l 0.1725,-0.0016 l 0.1725,-0.0032 l 0.1725,-0.0048 l 0.1725,-0.0064 l 0.1725,-0.0080 l 0.1725,-0.0096 l 0.1725,-0.0112 l 0.1725,-0.0128 l 0.1725,-0.0143 l 0.1725,-0.0159 ZM 876.2220,44.3052 v -5.5188 l -0.3449,0.1004 l -0.3449,0.0986 l -0.3449,0.0965 l -0.3449,0.0940 l -0.3449,0.0911 l -0.3449,0.0879 l -0.3449,0.0843 l -0.3449,0.0804 l -0.3449,0.0761 l -0.1725,0.0364 l -0.1725,0.0352 l -0.1725,0.0340 l -0.1725,0.0328 l -0.1725,0.0315 l -0.1725,0.0302 l -0.1725,0.0289 l -0.1725,0.0275 l -0.1725,0.0262 l -0.1725,0.0248 l -0.1725,0.0233 l -0.1725,0.0219 l -0.1725,0.0204 l -0.1725,0.0189 v 5.5188 l 0.1725,-0.0189 l 0.1725,-0.0204 l 0.1725,-0.0219 l 0.1725,-0.0233 l 0.1725,-0.0248 l 0.1725,-0.0262 l 0.1725,-0.0275 l 0.1725,-0.0289 l 0.1725,-0.0302 l 0.1725,-0.0315 l 0.1725,-0.0328 l 0.1725,-0.0340 l 0.1725,-0.0352 l 0.1725,-0.0364 l 0.3449,-0.0761 l 0.3449,-0.0804 l 0.3449,-0.0843 l 0.3449,-0.0879 l 0.3449,-0.0911 l 0.3449,-0.0940 l 0.3449,-0.0965 l 0.3449,-0.0986 ZM 876.2220,44.3052 v -5.5188 l -0.3449,0.1004 l -0.3449,0.0986 l -0.3449,0.0965 l -0.3449,0.0940 l -0.3449,0.0911 l -0.3449,0.0879 l -0.3449,0.0843 l -0.3449,0.0804 l -0.3449,0.0761 l -0.1725,0.0364 l -0.1725,0.0352 l -0.1725,0.0340 l -0.1725,0.0328 l -0.1725,0.0315 l -0.1725,0.0302 l -0.1725,0.0289 l -0.1725,0.0275 l -0.1725,0.0262 l -0.1725,0.0248 l -0.1725,0.0233 l -0.1725,0.0219 l -0.1725,0.0204 l -0.1725,0.0189 v 5.5188 l 0.1725,-0.0189 l 0.1725,-0.0204 l 0.1725,-0.0219 l 0.1725,-0.0233 l 0.1725,-0.0248 l 0.1725,-0.0262 l 0.1725,-0.0275 l 0.1725,-0.0289 l 0.1725,-0.0302 l 0.1725,-0.0315 l 0.1725,-0.0328 l 0.1725,-0.0340 l 0.1725,-0.0352 l 0.1725,-0.0364 l 0.3449,-0.0761 l 0.3449,-0.0804 l 0.3449,-0.0843 l 0.3449,-0.0879 l 0.3449,-0.0911 l 0.3449,-0.0940 l 0.3449,-0.0965 l 0.3449,-0.0986 ZM 881.7408,42.7829 v -5.5188 l -0.1725,0.0371 l -0.1725,0.0382 l -0.3449,0.0795 l -0.3449,0.0835 l -0.3449,0.0872 l -0.3449,0.0905 l -0.3449,0.0934 l -0.3449,0.0960 l -0.3449,0.0982 l -0.3449,0.1001 l -0.3449,0.1015 l -0.6898,0.2058 l -0.6898,0.2068 l -0.6898,0.2045 v 5.5188 l 0.6898,-0.2045 l 0.6898,-0.2068 l 0.6898,-0.2058 l 0.3449,-0.1015 l 0.3449,-0.1001 l 0.3449,-0.0982 l 0.3449,-0.0960 l 0.3449,-0.0934 l 0.3449,-0.0905 l 0.3449,-0.0872 l 0.3449,-0.0835 l 0.3449,-0.0795 l 0.1725,-0.0382 ZM 854.1470,48.0220 l -0.0000,-5.5188 l -0.1725,-0.0241 l -0.1725,-0.0226 l -0.1725,-0.0212 l -0.1725,-0.0197 l -0.1725,-0.0182 l -0.1725,-0.0167 l -0.1725,-0.0151 l -0.1725,-0.0136 l -0.1725,-0.0120 l -0.1725,-0.0104 l -0.1725,-0.0088 l -0.1725,-0.0073 l -0.1725,-0.0056 l -0.1725,-0.0040 l -0.1725,-0.0024 l -0.1725,-0.0008 l -0.1725,0.0008 l -0.1725,0.0024 l -0.1725,0.0040 l -0.1725,0.0056 l -0.1725,0.0073 l -0.1725,0.0088 l -0.1725,0.0104 l -0.1725,0.0120 l -0.1725,0.0136 l -0.1725,0.0151 l -0.1725,0.0167 l -0.1725,0.0182 l -0.1725,0.0197 l -0.1725,0.0212 l -0.1725,0.0226 l -0.1725,0.0241 l -0.0000,5.5188 l 0.1725,-0.0241 l 0.1725,-0.0226 l 0.1725,-0.0212 l 0.1725,-0.0197 l 0.1725,-0.0182 l 0.1725,-0.0167 l 0.1725,-0.0151 l 0.1725,-0.0136 l 0.1725,-0.0120 l 0.1725,-0.0104 l 0.1725,-0.0088 l 0.1725,-0.0073 l 0.1725,-0.0056 l 0.1725,-0.0040 l 0.1725,-0.0024 l 0.1725,-0.0008 l 0.1725,0.0008 l 0.1725,0.0024 l 0.1725,0.0040 l 0.1725,0.0056 l 0.1725,0.0073 l 0.1725,0.0088 l 0.1725,0.0104 l 0.1725,0.0120 l 0.1725,0.0136 l 0.1725,0.0151 l 0.1725,0.0167 l 0.1725,0.0182 l 0.1725,0.0197 l 0.1725,0.0212 l 0.1725,0.0226 ZM 859.6657,49.3578 v -5.5188 l -0.6898,-0.2050 l -0.3449,-0.1008 l -0.3449,-0.0992 l -0.3449,-0.0971 l -0.3449,-0.0947 l -0.3449,-0.0919 l -0.3449,-0.0888 l -0.3449,-0.0853 l -0.3449,-0.0814 l -0.3449,-0.0773 l -0.1725,-0.0370 l -0.1725,-0.0359 l -0.1725,-0.0347 l -0.1725,-0.0335 l -0.1725,-0.0322 l -0.1725,-0.0309 l -0.1725,-0.0296 l -0.1725,-0.0283 l -0.1725,-0.0269 l -0.1725,-0.0255 l -0.0000,5.5188 l 0.1725,0.0255 l 0.1725,0.0269 l 0.1725,0.0283 l 0.1725,0.0296 l 0.1725,0.0309 l 0.1725,0.0322 l 0.1725,0.0335 l 0.1725,0.0347 l 0.1725,0.0359 l 0.1725,0.0370 l 0.3449,0.0773 l 0.3449,0.0814 l 0.3449,0.0853 l 0.3449,0.0888 l 0.3449,0.0919 l 0.3449,0.0947 l 0.3449,0.0971 l 0.3449,0.0992 l 0.3449,0.1008 ZM 859.6657,49.3578 v -5.5188 l -0.6898,-0.2050 l -0.3449,-0.1008 l -0.3449,-0.0992 l -0.3449,-0.0971 l -0.3449,-0.0947 l -0.3449,-0.0919 l -0.3449,-0.0888 l -0.3449,-0.0853 l -0.3449,-0.0814 l -0.3449,-0.0773 l -0.1725,-0.0370 l -0.1725,-0.0359 l -0.1725,-0.0347 l -0.1725,-0.0335 l -0.1725,-0.0322 l -0.1725,-0.0309 l -0.1725,-0.0296 l -0.1725,-0.0283 l -0.1725,-0.0269 l -0.1725,-0.0255 l -0.0000,5.5188 l 0.1725,0.0255 l 0.1725,0.0269 l 0.1725,0.0283 l 0.1725,0.0296 l 0.1725,0.0309 l 0.1725,0.0322 l 0.1725,0.0335 l 0.1725,0.0347 l 0.1725,0.0359 l 0.1725,0.0370 l 0.3449,0.0773 l 0.3449,0.0814 l 0.3449,0.0853 l 0.3449,0.0888 l 0.3449,0.0919 l 0.3449,0.0947 l 0.3449,0.0971 l 0.3449,0.0992 l 0.3449,0.1008 ZM 865.1845,50.8013 v -5.5188 l -0.1725,-0.0316 l -0.1725,-0.0329 l -0.1725,-0.0341 l -0.1725,-0.0353 l -0.1725,-0.0365 l -0.1725,-0.0376 l -0.3449,-0.0784 l -0.3449,-0.0825 l -0.3449,-0.0862 l -0.3449,-0.0896 l -0.3449,-0.0927 l -0.3449,-0.0954 l -0.3449,-0.0977 l -0.3449,-0.0996 l -0.3449,-0.1012 l -0.6898,-0.2054 l -0.6898,-0.2068 v 5.5188 l 0.6898,0.2068 l 0.6898,0.2054 l 0.3449,0.1012 l 0.3449,0.0996 l 0.3449,0.0977 l 0.3449,0.0954 l 0.3449,0.0927 l 0.3449,0.0896 l 0.3449,0.0862 l 0.3449,0.0825 l 0.3449,0.0784 l 0.1725,0.0376 l 0.1725,0.0365 l 0.1725,0.0353 l 0.1725,0.0341 l 0.1725,0.0329 ZM 870.7032,51.0254 v -5.5188 l -0.1725,0.0174 l -0.1725,0.0159 l -0.1725,0.0143 l -0.1725,0.0128 l -0.1725,0.0112 l -0.1725,0.0096 l -0.1725,0.0080 l -0.1725,0.0064 l -0.1725,0.0048 l -0.1725,0.0032 l -0.1725,0.0016 l -0.1725,-0.0001 l -0.1725,-0.0017 l -0.1725,-0.0033 l -0.1725,-0.0049 l -0.1725,-0.0065 l -0.1725,-0.0081 l -0.1725,-0.0097 l -0.1725,-0.0113 l -0.1725,-0.0128 l -0.1725,-0.0144 l -0.1725,-0.0160 l -0.1725,-0.0175 l -0.1725,-0.0190 l -0.1725,-0.0205 l -0.1725,-0.0220 l -0.1725,-0.0234 l -0.1725,-0.0248 l -0.1725,-0.0263 l -0.1725,-0.0276 l -0.1725,-0.0290 l -0.1725,-0.0303 v 5.5188 l 0.1725,0.0303 l 0.1725,0.0290 l 0.1725,0.0276 l 0.1725,0.0263 l 0.1725,0.0248 l 0.1725,0.0234 l 0.1725,0.0220 l 0.1725,0.0205 l 0.1725,0.0190 l 0.1725,0.0175 l 0.1725,0.0160 l 0.1725,0.0144 l 0.1725,0.0128 l 0.1725,0.0113 l 0.1725,0.0097 l 0.1725,0.0081 l 0.1725,0.0065 l 0.1725,0.0049 l 0.1725,0.0033 l 0.1725,0.0017 l 0.1725,0.0001 l 0.1725,-0.0016 l 0.1725,-0.0032 l 0.1725,-0.0048 l 0.1725,-0.0064 l 0.1725,-0.0080 l 0.1725,-0.0096 l 0.1725,-0.0112 l 0.1725,-0.0128 l 0.1725,-0.0143 l 0.1725,-0.0159 ZM 870.7032,51.0254 v -5.5188 l -0.1725,0.0174 l -0.1725,0.0159 l -0.1725,0.0143 l -0.1725,0.0128 l -0.1725,0.0112 l -0.1725,0.0096 l -0.1725,0.0080 l -0.1725,0.0064 l -0.1725,0.0048 l -0.1725,0.0032 l -0.1725,0.0016 l -0.1725,-0.0001 l -0.1725,-0.0017 l -0.1725,-0.0033 l -0.1725,-0.0049 l -0.1725,-0.0065 l -0.1725,-0.0081 l -0.1725,-0.0097 l -0.1725,-0.0113 l -0.1725,-0.0128 l -0.1725,-0.0144 l -0.1725,-0.0160 l -0.1725,-0.0175 l -0.1725,-0.0190 l -0.1725,-0.0205 l -0.1725,-0.0220 l -0.1725,-0.0234 l -0.1725,-0.0248 l -0.1725,-0.0263 l -0.1725,-0.0276 l -0.1725,-0.0290 l -0.1725,-0.0303 v 5.5188 l 0.1725,0.0303 l 0.1725,0.0290 l 0.1725,0.0276 l 0.1725,0.0263 l 0.1725,0.0248 l 0.1725,0.0234 l 0.1725,0.0220 l 0.1725,0.0205 l 0.1725,0.0190 l 0.1725,0.0175 l 0.1725,0.0160 l 0.1725,0.0144 l 0.1725,0.0128 l 0.1725,0.0113 l 0.1725,0.0097 l 0.1725,0.0081 l 0.1725,0.0065 l 0.1725,0.0049 l 0.1725,0.0033 l 0.1725,0.0017 l 0.1725,0.0001 l 0.1725,-0.0016 l 0.1725,-0.0032 l 0.1725,-0.0048 l 0.1725,-0.0064 l 0.1725,-0.0080 l 0.1725,-0.0096 l 0.1725,-0.0112 l 0.1725,-0.0128 l 0.1725,-0.0143 l 0.1725,-0.0159 ZM 876.2220,49.8239 v -5.5188 l -0.3449,0.1004 l -0.3449,0.0986 l -0.3449,0.0965 l -0.3449,0.0940 l -0.3449,0.0911 l -0.3449,0.0879 l -0.3449,0.0843 l -0.3449,0.0804 l -0.3449,0.0761 l -0.1725,0.0364 l -0.1725,0.0352 l -0.1725,0.0340 l -0.1725,0.0328 l -0.1725,0.0315 l -0.1725,0.0302 l -0.1725,0.0289 l -0.1725,0.0275 l -0.1725,0.0262 l -0.1725,0.0248 l -0.1725,0.0233 l -0.1725,0.0219 l -0.1725,0.0204 l -0.1725,0.0189 v 5.5188 l 0.1725,-0.0189 l 0.1725,-0.0204 l 0.1725,-0.0219 l 0.1725,-0.0233 l 0.1725,-0.0248 l 0.1725,-0.0262 l 0.1725,-0.0275 l 0.1725,-0.0289 l 0.1725,-0.0302 l 0.1725,-0.0315 l 0.1725,-0.0328 l 0.1725,-0.0340 l 0.1725,-0.0352 l 0.1725,-0.0364 l 0.3449,-0.0761 l 0.3449,-0.0804 l 0.3449,-0.0843 l 0.3449,-0.0879 l 0.3449,-0.0911 l 0.3449,-0.0940 l 0.3449,-0.0965 l 0.3449,-0.0986 ZM 881.7408,48.3016 v -5.5188 l -0.1725,0.0371 l -0.1725,0.0382 l -0.3449,0.0795 l -0.3449,0.0835 l -0.3449,0.0872 l -0.3449,0.0905 l -0.3449,0.0934 l -0.3449,0.0960 l -0.3449,0.0982 l -0.3449,0.1001 l -0.3449,0.1015 l -0.6898,0.2058 l -0.6898,0.2068 l -0.6898,0.2045 v 5.5188 l 0.6898,-0.2045 l 0.6898,-0.2068 l 0.6898,-0.2058 l 0.3449,-0.1015 l 0.3449,-0.1001 l 0.3449,-0.0982 l 0.3449,-0.0960 l 0.3449,-0.0934 l 0.3449,-0.0905 l 0.3449,-0.0872 l 0.3449,-0.0835 l 0.3449,-0.0795 l 0.1725,-0.0382 ZM 881.7408,48.3016 v -5.5188 l -0.1725,0.0371 l -0.1725,0.0382 l -0.3449,0.0795 l -0.3449,0.0835 l -0.3449,0.0872 l -0.3449,0.0905 l -0.3449,0.0934 l -0.3449,0.0960 l -0.3449,0.0982 l -0.3449,0.1001 l -0.3449,0.1015 l -0.6898,0.2058 l -0.6898,0.2068 l -0.6898,0.2045 v 5.5188 l 0.6898,-0.2045 l 0.6898,-0.2068 l 0.6898,-0.2058 l 0.3449,-0.1015 l 0.3449,-0.1001 l 0.3449,-0.0982 l 0.3449,-0.0960 l 0.3449,-0.0934 l 0.3449,-0.0905 l 0.3449,-0.0872 l 0.3449,-0.0835 l 0.3449,-0.0795 l 0.1725,-0.0382 ZM 854.1470,53.5407 l -0.0000,-5.5188 l -0.1725,-0.0241 l -0.1725,-0.0226 l -0.1725,-0.0212 l -0.1725,-0.0197 l -0.1725,-0.0182 l -0.1725,-0.0167 l -0.1725,-0.0151 l -0.1725,-0.0136 l -0.1725,-0.0120 l -0.1725,-0.0104 l -0.1725,-0.0088 l -0.1725,-0.0073 l -0.1725,-0.0056 l -0.1725,-0.0040 l -0.1725,-0.0024 l -0.1725,-0.0008 l -0.1725,0.0008 l -0.1725,0.0024 l -0.1725,0.0040 l -0.1725,0.0056 l -0.1725,0.0073 l -0.1725,0.0088 l -0.1725,0.0104 l -0.1725,0.0120 l -0.1725,0.0136 l -0.1725,0.0151 l -0.1725,0.0167 l -0.1725,0.0182 l -0.1725,0.0197 l -0.1725,0.0212 l -0.1725,0.0226 l -0.1725,0.0241 l -0.0000,5.5188 l 0.1725,-0.0241 l 0.1725,-0.0226 l 0.1725,-0.0212 l 0.1725,-0.0197 l 0.1725,-0.0182 l 0.1725,-0.0167 l 0.1725,-0.0151 l 0.1725,-0.0136 l 0.1725,-0.0120 l 0.1725,-0.0104 l 0.1725,-0.0088 l 0.1725,-0.0073 l 0.1725,-0.0056 l 0.1725,-0.0040 l 0.1725,-0.0024 l 0.1725,-0.0008 l 0.1725,0.0008 l 0.1725,0.0024 l 0.1725,0.0040 l 0.1725,0.0056 l 0.1725,0.0073 l 0.1725,0.0088 l 0.1725,0.0104 l 0.1725,0.0120 l 0.1725,0.0136 l 0.1725,0.0151 l 0.1725,0.0167 l 0.1725,0.0182 l 0.1725,0.0197 l 0.1725,0.0212 l 0.1725,0.0226 ZM 854.1470,53.5407 l -0.0000,-5.5188 l -0.1725,-0.0241 l -0.1725,-0.0226 l -0.1725,-0.0212 l -0.1725,-0.0197 l -0.1725,-0.0182 l -0.1725,-0.0167 l -0.1725,-0.0151 l -0.1725,-0.0136 l -0.1725,-0.0120 l -0.1725,-0.0104 l -0.1725,-0.0088 l -0.1725,-0.0073 l -0.1725,-0.0056 l -0.1725,-0.0040 l -0.1725,-0.0024 l -0.1725,-0.0008 l -0.1725,0.0008 l -0.1725,0.0024 l -0.1725,0.0040 l -0.1725,0.0056 l -0.1725,0.0073 l -0.1725,0.0088 l -0.1725,0.0104 l -0.1725,0.0120 l -0.1725,0.0136 l -0.1725,0.0151 l -0.1725,0.0167 l -0.1725,0.0182 l -0.1725,0.0197 l -0.1725,0.0212 l -0.1725,0.0226 l -0.1725,0.0241 l -0.0000,5.5188 l 0.1725,-0.0241 l 0.1725,-0.0226 l 0.1725,-0.0212 l 0.1725,-0.0197 l 0.1725,-0.0182 l 0.1725,-0.0167 l 0.1725,-0.0151 l 0.1725,-0.0136 l 0.1725,-0.0120 l 0.1725,-0.0104 l 0.1725,-0.0088 l 0.1725,-0.0073 l 0.1725,-0.0056 l 0.1725,-0.0040 l 0.1725,-0.0024 l 0.1725,-0.0008 l 0.1725,0.0008 l 0.1725,0.0024 l 0.1725,0.0040 l 0.1725,0.0056 l 0.1725,0.0073 l 0.1725,0.0088 l 0.1725,0.0104 l 0.1725,0.0120 l 0.1725,0.0136 l 0.1725,0.0151 l 0.1725,0.0167 l 0.1725,0.0182 l 0.1725,0.0197 l 0.1725,0.0212 l 0.1725,0.0226 ZM 859.6657,54.8766 v -5.5188 l -0.6898,-0.2050 l -0.3449,-0.1008 l -0.3449,-0.0992 l -0.3449,-0.0971 l -0.3449,-0.0947 l -0.3449,-0.0919 l -0.3449,-0.0888 l -0.3449,-0.0853 l -0.3449,-0.0814 l -0.3449,-0.0773 l -0.1725,-0.0370 l -0.1725,-0.0359 l -0.1725,-0.0347 l -0.1725,-0.0335 l -0.1725,-0.0322 l -0.1725,-0.0309 l -0.1725,-0.0296 l -0.1725,-0.0283 l -0.1725,-0.0269 l -0.1725,-0.0255 l -0.0000,5.5188 l 0.1725,0.0255 l 0.1725,0.0269 l 0.1725,0.0283 l 0.1725,0.0296 l 0.1725,0.0309 l 0.1725,0.0322 l 0.1725,0.0335 l 0.1725,0.0347 l 0.1725,0.0359 l 0.1725,0.0370 l 0.3449,0.0773 l 0.3449,0.0814 l 0.3449,0.0853 l 0.3449,0.0888 l 0.3449,0.0919 l 0.3449,0.0947 l 0.3449,0.0971 l 0.3449,0.0992 l 0.3449,0.1008 ZM 865.1845,56.3201 v -5.5188 l -0.1725,-0.0316 l -0.1725,-0.0329 l -0.1725,-0.0341 l -0.1725,-0.0353 l -0.1725,-0.0365 l -0.1725,-0.0376 l -0.3449,-0.0784 l -0.3449,-0.0825 l -0.3449,-0.0862 l -0.3449,-0.0896 l -0.3449,-0.0927 l -0.3449,-0.0954 l -0.3449,-0.0977 l -0.3449,-0.0996 l -0.3449,-0.1012 l -0.6898,-0.2054 l -0.6898,-0.2068 v 5.5188 l 0.6898,0.2068 l 0.6898,0.2054 l 0.3449,0.1012 l 0.3449,0.0996 l 0.3449,0.0977 l 0.3449,0.0954 l 0.3449,0.0927 l 0.3449,0.0896 l 0.3449,0.0862 l 0.3449,0.0825 l 0.3449,0.0784 l 0.1725,0.0376 l 0.1725,0.0365 l 0.1725,0.0353 l 0.1725,0.0341 l 0.1725,0.0329 ZM 865.1845,56.3201 v -5.5188 l -0.1725,-0.0316 l -0.1725,-0.0329 l -0.1725,-0.0341 l -0.1725,-0.0353 l -0.1725,-0.0365 l -0.1725,-0.0376 l -0.3449,-0.0784 l -0.3449,-0.0825 l -0.3449,-0.0862 l -0.3449,-0.0896 l -0.3449,-0.0927 l -0.3449,-0.0954 l -0.3449,-0.0977 l -0.3449,-0.0996 l -0.3449,-0.1012 l -0.6898,-0.2054 l -0.6898,-0.2068 v 5.5188 l 0.6898,0.2068 l 0.6898,0.2054 l 0.3449,0.1012 l 0.3449,0.0996 l 0.3449,0.0977 l 0.3449,0.0954 l 0.3449,0.0927 l 0.3449,0.0896 l 0.3449,0.0862 l 0.3449,0.0825 l 0.3449,0.0784 l 0.1725,0.0376 l 0.1725,0.0365 l 0.1725,0.0353 l 0.1725,0.0341 l 0.1725,0.0329 ZM 870.7032,56.5441 v -5.5188 l -0.1725,0.0174 l -0.1725,0.0159 l -0.1725,0.0143 l -0.1725,0.0128 l -0.1725,0.0112 l -0.1725,0.0096 l -0.1725,0.0080 l -0.1725,0.0064 l -0.1725,0.0048 l -0.1725,0.0032 l -0.1725,0.0016 l -0.1725,-0.0001 l -0.1725,-0.0017 l -0.1725,-0.0033 l -0.1725,-0.0049 l -0.1725,-0.0065 l -0.1725,-0.0081 l -0.1725,-0.0097 l -0.1725,-0.0113 l -0.1725,-0.0128 l -0.1725,-0.0144 l -0.1725,-0.0160 l -0.1725,-0.0175 l -0.1725,-0.0190 l -0.1725,-0.0205 l -0.1725,-0.0220 l -0.1725,-0.0234 l -0.1725,-0.0248 l -0.1725,-0.0263 l -0.1725,-0.0276 l -0.1725,-0.0290 l -0.1725,-0.0303 v 5.5188 l 0.1725,0.0303 l 0.1725,0.0290 l 0.1725,0.0276 l 0.1725,0.0263 l 0.1725,0.0248 l 0.1725,0.0234 l 0.1725,0.0220 l 0.1725,0.0205 l 0.1725,0.0190 l 0.1725,0.0175 l 0.1725,0.0160 l 0.1725,0.0144 l 0.1725,0.0128 l 0.1725,0.0113 l 0.1725,0.0097 l 0.1725,0.0081 l 0.1725,0.0065 l 0.1725,0.0049 l 0.1725,0.0033 l 0.1725,0.0017 l 0.1725,0.0001 l 0.1725,-0.0016 l 0.1725,-0.0032 l 0.1725,-0.0048 l 0.1725,-0.0064 l 0.1725,-0.0080 l 0.1725,-0.0096 l 0.1725,-0.0112 l 0.1725,-0.0128 l 0.1725,-0.0143 l 0.1725,-0.0159 ZM 876.2220,55.3427 v -5.5188 l -0.3449,0.1004 l -0.3449,0.0986 l -0.3449,0.0965 l -0.3449,0.0940 l -0.3449,0.0911 l -0.3449,0.0879 l -0.3449,0.0843 l -0.3449,0.0804 l -0.3449,0.0761 l -0.1725,0.0364 l -0.1725,0.0352 l -0.1725,0.0340 l -0.1725,0.0328 l -0.1725,0.0315 l -0.1725,0.0302 l -0.1725,0.0289 l -0.1725,0.0275 l -0.1725,0.0262 l -0.1725,0.0248 l -0.1725,0.0233 l -0.1725,0.0219 l -0.1725,0.0204 l -0.1725,0.0189 v 5.5188 l 0.1725,-0.0189 l 0.1725,-0.0204 l 0.1725,-0.0219 l 0.1725,-0.0233 l 0.1725,-0.0248 l 0.1725,-0.0262 l 0.1725,-0.0275 l 0.1725,-0.0289 l 0.1725,-0.0302 l 0.1725,-0.0315 l 0.1725,-0.0328 l 0.1725,-0.0340 l 0.1725,-0.0352 l 0.1725,-0.0364 l 0.3449,-0.0761 l 0.3449,-0.0804 l 0.3449,-0.0843 l 0.3449,-0.0879 l 0.3449,-0.0911 l 0.3449,-0.0940 l 0.3449,-0.0965 l 0.3449,-0.0986 ZM 876.2220,55.3427 v -5.5188 l -0.3449,0.1004 l -0.3449,0.0986 l -0.3449,0.0965 l -0.3449,0.0940 l -0.3449,0.0911 l -0.3449,0.0879 l -0.3449,0.0843 l -0.3449,0.0804 l -0.3449,0.0761 l -0.1725,0.0364 l -0.1725,0.0352 l -0.1725,0.0340 l -0.1725,0.0328 l -0.1725,0.0315 l -0.1725,0.0302 l -0.1725,0.0289 l -0.1725,0.0275 l -0.1725,0.0262 l -0.1725,0.0248 l -0.1725,0.0233 l -0.1725,0.0219 l -0.1725,0.0204 l -0.1725,0.0189 v 5.5188 l 0.1725,-0.0189 l 0.1725,-0.0204 l 0.1725,-0.0219 l 0.1725,-0.0233 l 0.1725,-0.0248 l 0.1725,-0.0262 l 0.1725,-0.0275 l 0.1725,-0.0289 l 0.1725,-0.0302 l 0.1725,-0.0315 l 0.1725,-0.0328 l 0.1725,-0.0340 l 0.1725,-0.0352 l 0.1725,-0.0364 l 0.3449,-0.0761 l 0.3449,-0.0804 l 0.3449,-0.0843 l 0.3449,-0.0879 l 0.3449,-0.0911 l 0.3449,-0.0940 l 0.3449,-0.0965 l 0.3449,-0.0986 ZM 881.7408,53.8204 v -5.5188 l -0.1725,0.0371 l -0.1725,0.0382 l -0.3449,0.0795 l -0.3449,0.0835 l -0.3449,0.0872 l -0.3449,0.0905 l -0.3449,0.0934 l -0.3449,0.0960 l -0.3449,0.0982 l -0.3449,0.1001 l -0.3449,0.1015 l -0.6898,0.2058 l -0.6898,0.2068 l -0.6898,0.2045 v 5.5188 l 0.6898,-0.2045 l 0.6898,-0.2068 l 0.6898,-0.2058 l 0.3449,-0.1015 l 0.3449,-0.1001 l 0.3449,-0.0982 l 0.3449,-0.0960 l 0.3449,-0.0934 l 0.3449,-0.0905 l 0.3449,-0.0872 l 0.3449,-0.0835 l 0.3449,-0.0795 l 0.1725,-0.0382 Z"/></g><g stroke-linejoin="miter" stroke-opacity="1.0" fill-opacity="1.0" stroke="rgb(0,0,0)" stroke-width="0.2759381898454747" fill="rgb(165,42,42)" stroke-linecap="butt" stroke-miterlimit="10.0"><path d="M 848.6282,86.4506 l -0.0000,-55.1876 h -2.2075 l -0.0000,55.1876 Z"/></g><g stroke-linejoin="miter" stroke-opacity="1.0" fill-opacity="1.0" stroke="rgb(0,0,0)" stroke-width="0.0" fill="rgb(244,164,96)" stroke-linecap="butt" stroke-miterlimit="10.0"><path d="M 689.8455,86.4506 c 22.0751,-21.0239 56.7644,-21.0239 78.8395 -0.0000c -24.5033,13.6655 -54.3362,13.6655 -78.8395 0.0000Z"/></g><g stroke-linejoin="miter" stroke-opacity="1.0" fill-opacity="1.0" stroke="rgb(0,0,0)" stroke-width="0.0" fill="rgb(244,164,96)" stroke-linecap="butt" stroke-miterlimit="10.0"><path d="M 295.6481,86.4506 c 50.4573,-21.0239 107.2217,-21.0239 157.6790 0.0000c -51.6714,13.6655 -106.0076,13.6655 -157.6790 -0.0000Z"/></g><g stroke-linejoin="miter" stroke-opacity="1.0" fill-opacity="1.0" stroke="rgb(0,0,0)" stroke-width="2.382528648838347" fill="rgb(0,0,0)" stroke-linecap="butt" stroke-miterlimit="10.0"><path d="M 851.4664,86.4506 c 0.0000,-2.1771 -1.7649,-3.9420 -3.9420 -3.9420c -2.1771,-0.0000 -3.9420,1.7649 -3.9420 3.9420c -0.0000,2.1771 1.7649,3.9420 3.9420 3.9420c 2.1771,0.0000 3.9420,-1.7649 3.9420 -3.9420Z"/></g><g stroke-linejoin="miter" stroke-opacity="1.0" fill-opacity="1.0" stroke="rgb(0,0,0)" stroke-width="2.382528648838347" fill="rgb(0,0,0)" stroke-linecap="butt" stroke-miterlimit="10.0"><path d="M 141.9111,86.4506 c 0.0000,-2.1771 -1.7649,-3.9420 -3.9420 -3.9420c -2.1771,-0.0000 -3.9420,1.7649 -3.9420 3.9420c -0.0000,2.1771 1.7649,3.9420 3.9420 3.9420c 2.1771,0.0000 3.9420,-1.7649 3.9420 -3.9420Z"/></g><g stroke-linejoin="miter" stroke-opacity="1.0" fill-opacity="0.0" stroke="rgb(0,0,0)" stroke-width="2.3651844843897827" fill="rgb(0,0,0)" stroke-dashoffset="0.0" stroke-linecap="butt" stroke-miterlimit="10.0" stroke-dasharray="6.3071586250394205,6.3071586250394205"><path d="M 137.9691,86.4506 h 134.0271 c 9.8549,-12.1917 19.7099,-24.3833 29.5648 -34.4923c 9.8549,-10.1089 19.7099,-18.1351 29.5648 -24.6373c 9.8549,-6.5022 19.7099,-11.4805 29.5648 -14.7824c 9.8549,-3.3019 19.7099,-4.9275 29.5648 -4.9275c 9.8549,0.0000 19.7099,1.6256 29.5648 4.9275c 9.8549,3.3019 19.7099,8.2802 29.5648 14.7824c 9.8549,6.5022 19.7099,14.5284 29.5648 24.6373c 9.8549,10.1089 19.7099,22.3006 29.5648 34.4923h 102.4913 c 9.8549,-12.1917 19.7099,-24.3833 29.5648 -34.4923c 9.8549,-10.1089 19.7099,-18.1351 29.5648 -24.6373c 9.8549,-6.5022 19.7099,-11.4805 29.5648 -14.7824c 9.8549,-3.3019 19.7099,-4.9275 29.5648 -4.9275c 9.8549,0.0000 19.7099,1.6256 29.5648 4.9275c 9.8549,3.3019 19.7099,8.2802 29.5648 14.7824c 9.8549,6.5022 19.7099,14.5284 29.5648 24.6373c 9.8549,10.1089 19.7099,22.3006 29.5648 34.4923"/></g></svg>